<svg style="touch-action: none; border: 1px solid rgb(204, 204, 204); cursor: crosshair; width: 800px; height: 800px;"><path d="M 34.4 20.58 Q 34.4 20.58 34.16 22.35 33.93 24.11 33.88 26.61 33.83 29.1 35.16 31.22 36.5 33.33 37.16 35.88 37.83 38.44 38.5 41.1 39.17 43.77 39.17 46.44 39.17 49.1 39.17 51.77 39.17 54.44 39.17 57.1 39.17 59.77 39.17 62.44 39.17 65.1 39.17 67.77 39.17 70.44 39.83 73.11 40.5 75.77 41.16 78.41 41.83 81.05 41.83 83.75 41.83 86.44 40.97 90.13 40.1 93.82 39.64 96.13 39.17 98.44 39.17 101.09 39.17 103.73 39.83 106.41 40.5 109.1 40.5 111.77 40.5 114.44 40.5 117.1 40.5 119.77 39.59 122.64 38.69 125.51 38.93 127.98 39.17 130.44 38.36 133.13 37.55 135.83 36.51 139.11 35.47 142.39 35.99 145.06 36.5 147.74 37.16 150.97 37.83 154.21 37.83 156.99 37.83 159.77 38.5 163.87 39.17 167.96 39.1 168.36 39.04 168.76 38.85 169.11 38.66 169.47 38.37 169.75 38.07 170.03 37.71 170.2 37.34 170.37 36.94 170.41 36.54 170.46 36.14 170.37 35.75 170.28 35.4 170.08 35.05 169.87 34.79 169.56 34.53 169.25 34.38 168.88 34.23 168.5 34.21 168.1 34.18 167.69 34.29 167.3 34.4 166.91 34.63 166.58 34.85 166.24 35.18 166 35.5 165.75 35.88 165.62 36.26 165.49 36.67 165.49 37.07 165.49 37.46 165.62 37.84 165.75 38.16 166 38.48 166.24 38.71 166.57 38.94 166.91 39.05 167.3 39.16 167.69 39.13 168.09 39.11 168.5 38.96 168.87 38.81 169.25 38.55 169.56 38.29 169.86 37.94 170.07 37.6 170.28 37.2 170.37 36.81 170.46 36.4 170.41 36 170.37 35.64 170.2 35.27 170.03 34.97 169.75 34.68 169.47 34.49 169.12 34.3 168.76 34.24 168.36 34.17 167.96 34.17 167.96 34.17 167.96 34.36 167.55 34.55 167.14 33.69 164.79 32.83 162.44 32.83 159.75 32.83 157.06 33.4 154.44 33.97 151.81 32.74 148.55 31.5 145.29 31.54 142.99 31.57 140.69 32.23 138.03 32.89 135.38 33.53 132.91 34.17 130.44 34.17 127.73 34.18 125.03 34.84 122.4 35.5 119.77 35.5 117.1 35.5 114.44 36.07 111.79 36.65 109.15 35.41 107.12 34.17 105.1 34.17 102.53 34.17 99.96 34.21 97.66 34.24 95.36 35.54 92.88 36.83 90.4 36.83 87.85 36.83 85.29 37.75 83.19 38.67 81.09 37.6 79.07 36.53 77.06 35.35 75.08 34.17 73.1 34.17 70.44 34.17 67.77 34.17 65.11 34.17 62.44 34.17 59.77 34.17 57.1 34.17 54.44 34.17 51.77 34.17 49.2 34.17 46.62 35.1 44.52 36.02 42.43 34.43 40.53 32.83 38.63 32.01 36.51 31.19 34.39 30.01 31.08 28.83 27.77 29.01 25.15 29.19 22.53 30.06 20.97 30.94 19.42 31.04 19.22 31.13 19.02 31.27 18.85 31.41 18.68 31.58 18.55 31.76 18.42 31.96 18.33 32.16 18.25 32.38 18.21 32.6 18.18 32.82 18.2 33.04 18.21 33.24 18.28 33.45 18.35 33.64 18.47 33.82 18.59 33.98 18.75 34.13 18.91 34.24 19.1 34.35 19.29 34.41 19.5 34.47 19.71 34.48 19.93 34.49 20.15 34.44 20.36 34.4 20.58 34.4 20.58 Z"></path><path d="M 67.8 22.37 Q 67.8 22.37 68.68 25.64 69.57 28.9 69.68 32.96 69.79 37.02 69.81 45.45 69.82 53.88 69.27 62.04 68.72 70.19 68.07 82.07 67.43 93.94 67.32 101.44 67.21 108.94 67.2 117.96 67.18 126.98 67.13 130.4 67.09 133.82 68.44 137.23 69.78 140.64 69.78 143.07 69.78 145.5 70.47 148.57 71.16 151.63 71.11 152.03 71.05 152.43 70.87 152.79 70.68 153.16 70.4 153.44 70.11 153.72 69.75 153.9 69.38 154.08 68.98 154.13 68.58 154.18 68.18 154.11 67.79 154.03 67.44 153.83 67.09 153.62 66.82 153.32 66.55 153.02 66.39 152.65 66.23 152.27 66.2 151.87 66.17 151.47 66.27 151.08 66.37 150.68 66.59 150.34 66.81 150 67.13 149.75 67.45 149.5 67.83 149.36 68.21 149.23 68.61 149.22 69.02 149.21 69.4 149.33 69.79 149.45 70.12 149.69 70.44 149.93 70.68 150.26 70.91 150.59 71.03 150.98 71.14 151.36 71.13 151.77 71.12 152.17 70.97 152.55 70.83 152.93 70.58 153.24 70.32 153.56 69.98 153.77 69.64 153.99 69.24 154.08 68.85 154.18 68.45 154.14 68.04 154.11 67.67 153.95 67.3 153.78 67 153.51 66.7 153.24 66.51 152.89 66.31 152.53 66.24 152.13 66.16 151.74 66.16 151.74 66.16 151.74 65.52 148.8 64.87 145.86 64.98 142.8 65.09 139.75 63.67 137.04 62.25 134.32 62.21 130.64 62.18 126.96 62.2 117.92 62.22 108.87 62.33 101.27 62.44 93.66 63.08 81.76 63.73 69.85 64.28 61.87 64.82 53.89 64.81 45.52 64.79 37.14 64.71 33.43 64.64 29.72 64.42 26.34 64.2 22.97 64.19 22.75 64.18 22.53 64.23 22.31 64.27 22.1 64.36 21.9 64.46 21.7 64.59 21.53 64.73 21.36 64.91 21.23 65.08 21.09 65.28 21.01 65.49 20.92 65.7 20.89 65.92 20.85 66.14 20.87 66.36 20.88 66.57 20.95 66.78 21.02 66.96 21.14 67.15 21.25 67.3 21.41 67.45 21.57 67.56 21.76 67.67 21.95 67.74 22.16 67.8 22.37 67.8 22.37 Z"></path><path d="M 101.02 19.32 Q 101.02 19.32 102.45 21.98 103.87 24.63 105.25 37.04 106.62 49.45 106.3 73.24 105.97 97.02 105.36 118.21 104.75 139.4 105.2 148.99 105.64 158.59 105.74 161.24 105.83 163.89 105.78 164.29 105.72 164.69 105.55 165.05 105.37 165.42 105.09 165.71 104.8 165.99 104.44 166.18 104.08 166.36 103.68 166.42 103.28 166.47 102.88 166.4 102.48 166.33 102.13 166.13 101.78 165.93 101.51 165.64 101.23 165.34 101.07 164.97 100.91 164.6 100.87 164.19 100.84 163.79 100.93 163.4 101.03 163 101.24 162.66 101.46 162.32 101.77 162.06 102.08 161.81 102.46 161.66 102.84 161.52 103.24 161.51 103.65 161.49 104.04 161.61 104.42 161.73 104.75 161.96 105.08 162.19 105.32 162.52 105.56 162.85 105.68 163.23 105.8 163.62 105.8 164.02 105.79 164.43 105.65 164.81 105.51 165.19 105.26 165.51 105.01 165.82 104.67 166.04 104.33 166.26 103.94 166.36 103.55 166.46 103.15 166.43 102.74 166.4 102.37 166.25 102 166.09 101.7 165.82 101.39 165.55 101.19 165.2 100.99 164.85 100.91 164.46 100.83 164.06 100.83 164.06 100.83 164.06 100.74 161.44 100.65 158.82 100.2 149.04 99.75 139.26 100.36 118.1 100.97 96.95 101.31 73.47 101.65 49.98 100.44 38.21 99.22 26.44 98.43 23.56 97.64 20.68 97.58 20.46 97.53 20.25 97.52 20.03 97.52 19.81 97.57 19.6 97.61 19.38 97.71 19.19 97.81 18.99 97.95 18.83 98.1 18.66 98.28 18.53 98.45 18.4 98.66 18.32 98.86 18.24 99.08 18.21 99.3 18.18 99.52 18.2 99.73 18.22 99.94 18.3 100.15 18.37 100.33 18.49 100.51 18.61 100.66 18.78 100.81 18.94 100.92 19.13 101.02 19.32 101.02 19.32 Z"></path><path d="M 118 26.18 Q 118 26.18 122.98 25.84 127.96 25.5 136.55 25.5 145.15 25.5 149.93 25.5 154.71 25.5 167.14 25.5 179.58 25.5 191.65 25.5 203.72 25.5 218.5 25.5 233.28 25.5 247.41 25.5 261.54 25.5 273.9 25.5 286.27 25.5 292.24 25.5 298.22 25.5 305.32 25.5 312.42 25.5 323.04 25.5 333.65 25.5 343.76 25.5 353.86 25.5 371.07 25.5 388.28 25.5 394.53 25.5 400.77 25.5 411.31 26.05 421.84 26.61 429.1 26.7 436.37 26.79 445.42 27.37 454.48 27.94 461.47 28.04 468.47 28.13 475.3 28.7 482.12 29.28 489.26 29.37 496.4 29.46 503.15 29.48 509.9 29.49 514.93 29.5 519.95 29.5 525.9 30.06 531.85 30.61 536.62 30.7 541.39 30.79 545.51 30.81 549.64 30.82 554.77 30.83 559.9 30.83 564.69 31.41 569.48 32 571.91 32.07 574.34 32.13 577.52 32.15 580.69 32.16 584 32.17 587.31 32.17 593.52 32.73 599.73 33.28 602.9 33.37 606.07 33.46 609.18 33.48 612.3 33.5 614.66 33.5 617.03 33.5 620.2 33.5 623.37 33.5 625.57 33.5 627.77 33.5 628.07 33.54 628.37 33.57 628.65 33.68 628.93 33.79 629.18 33.96 629.43 34.13 629.63 34.35 629.83 34.58 629.97 34.85 630.11 35.11 630.18 35.41 630.25 35.7 630.25 36 630.25 36.3 630.18 36.59 630.11 36.89 629.97 37.15 629.83 37.42 629.63 37.65 629.43 37.87 629.18 38.04 628.93 38.21 628.65 38.32 628.37 38.43 628.07 38.46 627.77 38.5 624.7 38.5 621.63 38.5 618.46 38.5 615.3 38.5 611.44 38.5 607.58 38.5 602.5 38.5 597.41 38.5 591.57 38.5 585.72 38.5 580.31 38.5 574.89 38.5 568.43 38.5 561.98 38.5 558.67 38.5 555.36 38.5 550.37 38.5 545.37 38.5 537.33 38.5 529.29 38.5 526.82 38.5 524.34 38.5 520.6 38.5 516.86 38.5 512.36 38.5 507.85 38.5 502.22 39.05 496.59 39.59 493.88 39.69 491.17 39.79 488.13 40.34 485.08 40.9 482.15 41.01 479.22 41.13 475.39 41.15 471.56 41.16 466.62 41.71 461.68 42.26 457.39 42.36 453.1 42.46 449.05 42.48 444.99 42.49 439.32 42.5 433.65 42.5 428.82 42.5 423.98 42.5 420 43.04 416.03 43.58 412.42 43.69 408.82 43.79 404.88 43.81 400.94 43.82 396.95 43.83 392.96 43.83 387.86 43.83 382.76 43.83 375.35 44.38 367.93 44.94 365.5 45.03 363.08 45.13 357.84 45.15 352.61 45.17 349.86 45.17 347.1 45.17 344.68 44.57 342.25 43.98 339.39 43.92 336.54 43.87 333.82 43.85 331.11 43.84 325.86 43.83 320.61 43.83 317.87 43.83 315.12 43.83 310.96 43.83 306.8 43.83 304.49 43.23 302.17 42.64 298.03 42.57 293.9 42.51 291.42 43.03 288.93 43.56 283.27 43.67 277.6 43.79 273.64 43.81 269.68 43.83 265.35 44.37 261.02 44.9 258.11 45.02 255.2 45.13 250.99 45.69 246.77 46.25 244.26 46.35 241.76 46.46 238.75 47.01 235.74 47.56 232.81 47.67 229.88 47.79 226.89 47.81 223.9 47.83 221.02 48.34 218.13 48.84 215.87 48.99 213.6 49.13 211.01 49.14 208.41 49.16 203.78 49.81 199.14 50.46 194.79 50.48 190.44 50.49 186.17 50.5 181.89 50.5 179.46 50.5 177.02 50.5 173.83 51.14 170.64 51.78 168.43 52.32 166.23 52.87 162.43 53.53 158.62 54.2 154.66 54.86 150.7 55.52 147.29 56.19 143.89 56.85 141.14 57.5 138.39 58.16 135.86 58.96 133.33 59.76 131.69 60.88 130.04 62 129.76 62.09 129.47 62.19 129.17 62.21 128.87 62.23 128.57 62.18 128.27 62.13 128 62.01 127.72 61.89 127.48 61.71 127.24 61.53 127.05 61.29 126.86 61.06 126.73 60.79 126.61 60.51 126.55 60.22 126.49 59.92 126.5 59.62 126.52 59.32 126.6 59.03 126.69 58.74 126.84 58.48 126.99 58.22 127.2 58.01 127.41 57.79 127.67 57.63 127.92 57.47 132.75 56.31 137.59 55.15 146.56 54.47 155.54 53.78 158.18 53.66 160.83 53.55 173.44 52.98 186.05 52.41 197.1 52.31 208.14 52.21 217.29 52.75 226.44 53.29 232.35 53.37 238.26 53.46 241.48 53.48 244.69 53.49 248.55 53.5 252.42 53.5 257.5 53.5 262.59 53.5 265.11 53.5 267.64 53.5 271.94 53.5 276.24 53.5 281.4 53.5 286.56 53.5 290.2 53.5 293.84 53.5 298.33 53.5 302.83 53.5 309.68 53.5 316.53 53.5 321.7 54.06 326.88 54.62 331.49 54.71 336.11 54.79 341.32 54.81 346.54 54.82 351.97 55.39 357.41 55.95 368.16 56.04 378.9 56.13 381.85 56.15 384.8 56.16 392.04 56.72 399.27 57.28 408.7 57.37 418.13 57.46 422.51 57.48 426.88 57.49 430.39 57.5 433.89 57.5 438.37 57.5 442.84 57.5 446.92 57.5 451 57.5 455.01 57.5 459.03 57.5 462.47 57.5 465.92 57.5 469.82 57.5 473.73 57.5 477.16 57.5 480.59 57.5 483.39 57.5 486.18 57.5 489.43 57.5 492.67 57.5 497.73 58.08 502.78 58.66 506.32 58.73 509.85 58.79 517.66 58.81 525.47 58.82 527.9 58.83 530.34 58.83 536.94 59.39 543.55 59.95 550.1 60.04 556.65 60.13 563.85 60.15 571.05 60.16 578.36 60.17 585.67 60.17 589.13 60.17 592.58 60.17 595.38 60.17 598.18 60.17 601.98 60.17 605.78 60.17 609.74 60.17 613.71 60.17 617.7 60.17 621.7 60.17 624.82 60.74 627.95 61.32 631.01 61.39 634.07 61.46 636.81 61.48 639.55 61.49 644.26 61.5 648.97 61.5 651.36 62.09 653.76 62.68 657.16 62.74 660.56 62.79 664.55 63.41 668.54 64.03 671.34 64.08 674.14 64.13 676.48 64.15 678.82 64.17 681.52 64.75 684.22 65.33 687.16 65.4 690.1 65.46 693.38 65.48 696.66 65.49 700.53 65.5 704.41 65.5 707.28 65.5 710.15 65.5 714.62 64.98 719.1 64.45 721.4 64.33 723.7 64.21 724.12 64.19 724.53 64.17 724.83 64.2 725.13 64.22 725.42 64.31 725.71 64.41 725.96 64.57 726.22 64.73 726.43 64.94 726.64 65.16 726.79 65.42 726.94 65.68 727.03 65.97 727.11 66.26 727.12 66.56 727.14 66.86 727.08 67.16 727.02 67.45 726.89 67.73 726.76 68 726.57 68.23 726.38 68.47 726.14 68.65 725.9 68.83 725.63 68.95 725.35 69.07 725.05 69.12 724.76 69.17 723.23 71.25 721.7 73.33 715.89 75.49 710.07 77.65 697.43 79.66 684.8 81.67 676.17 82.62 667.54 83.57 661.37 83.68 655.2 83.79 649.17 83.81 643.14 83.82 637.69 83.83 632.23 83.83 625.77 83.83 619.32 83.83 612.68 83.83 606.05 83.83 599.39 83.83 592.73 83.83 589.94 83.83 587.14 83.83 583.35 83.83 579.55 83.83 576.7 83.83 573.84 83.83 570.59 83.83 567.33 83.83 563.46 83.83 559.59 83.83 553.83 83.27 548.07 82.71 541.12 82.63 534.18 82.54 526.82 81.97 519.46 81.4 516.62 81.3 513.77 81.21 507.13 80.63 500.48 80.06 493.36 79.96 486.25 79.87 481.51 79.85 476.77 79.83 472.3 79.83 467.83 79.83 460.34 79.27 452.85 78.72 447.79 78.63 442.73 78.54 437.44 78.52 432.16 78.51 428.5 78.5 424.83 78.5 417.02 78.5 409.2 78.5 406.21 78.5 403.22 78.5 399.4 78.5 395.57 78.5 391.6 78.5 387.63 78.5 383.63 78.5 379.64 78.5 375.09 78.5 370.53 78.5 365.33 78.5 360.13 78.5 357.03 78.5 353.94 78.5 347.88 78.5 341.81 78.5 335.8 78.5 329.79 78.5 325.18 78.5 320.57 78.5 317.85 78.5 315.12 78.5 309.86 78.5 304.61 78.5 301.11 77.93 297.61 77.36 294.45 77.28 291.29 77.21 287.99 77.19 284.69 77.18 281.56 77.71 278.44 78.24 274.94 78.35 271.44 78.46 267.75 78.48 264.06 78.5 260.11 78.5 256.16 78.5 253.87 79.02 251.57 79.55 248.54 79.68 245.5 79.81 242.78 80.47 240.06 81.12 234.76 81.14 229.47 81.16 226.38 81.16 223.29 81.17 217.99 81.81 212.69 82.46 210.07 82.95 207.45 83.43 205.18 83.61 202.92 83.79 199.51 84.45 196.1 85.12 192.18 85.79 188.26 86.46 186.01 86.47 183.75 86.48 181.24 87.13 178.72 87.79 175.13 88.33 171.55 88.88 168.13 89 164.71 89.13 162.08 89.65 159.46 90.17 156.63 90.31 153.8 90.46 150.19 91.01 146.58 91.57 143.22 92.21 139.86 92.86 137.69 93.01 135.51 93.16 135.21 93.15 134.91 93.13 134.62 93.04 134.34 92.95 134.08 92.8 133.82 92.64 133.6 92.43 133.39 92.22 133.23 91.96 133.08 91.71 132.98 91.42 132.89 91.13 132.87 90.83 132.85 90.53 132.91 90.23 132.96 89.94 133.08 89.66 133.2 89.39 133.39 89.15 133.57 88.91 133.81 88.72 134.05 88.54 134.32 88.41 134.59 88.29 134.89 88.23 135.19 88.17 139.32 88.17 143.46 88.17 149.49 88.17 155.53 88.17 164.85 88.17 174.18 88.17 184.62 88.17 195.05 88.17 205.75 88.72 216.44 89.28 221.53 89.37 226.62 89.46 231.49 90.04 236.35 90.62 238.81 90.72 241.27 90.82 243.52 90.3 245.77 89.78 249.2 89.66 252.62 89.54 257.62 89.52 262.63 89.51 270.11 89.5 277.6 89.5 283.3 89.5 289 89.5 293.28 89.5 297.57 89.5 303.28 89.5 308.99 89.5 316.05 89.5 323.11 89.5 333.23 90.05 343.35 90.61 352.75 90.7 362.15 90.79 371.02 91.37 379.89 91.94 387.41 92.04 394.93 92.13 402.29 92.15 409.65 92.16 417.08 92.72 424.51 93.28 433.04 94.49 441.56 95.7 447.84 95.89 454.12 96.09 469.05 96.67 483.99 97.26 486.52 97.36 489.06 97.46 495.53 97.48 502.01 97.49 507.54 97.5 513.07 97.5 518.43 97.5 523.8 97.5 530.8 97.5 537.8 97.5 544.63 98.06 551.45 98.61 554.74 98.7 558.03 98.79 561.89 98.81 565.75 98.82 570.83 98.83 575.92 98.83 580.65 98.83 585.39 98.83 592.28 98.83 599.18 98.83 604.22 98.83 609.26 98.83 613.44 98.83 617.62 98.83 621.82 99.4 626.02 99.97 628.79 100.05 631.56 100.13 635.89 100.15 640.22 100.16 646.6 100.72 652.98 101.28 656.74 101.37 660.49 101.46 666.22 102.04 671.95 102.61 675.24 103.28 678.53 103.95 681.09 104.04 683.64 104.13 686.83 104.14 690.02 104.16 693.33 104.17 696.64 104.17 699.24 104.17 701.85 104.17 702.14 104.21 702.44 104.24 702.73 104.35 703.01 104.46 703.26 104.63 703.5 104.8 703.7 105.02 703.9 105.25 704.04 105.52 704.18 105.78 704.25 106.08 704.33 106.37 704.33 106.67 704.33 106.97 704.25 107.26 704.18 107.56 704.04 107.82 703.9 108.09 703.7 108.32 703.5 108.54 703.25 108.71 703.01 108.88 702.72 108.99 702.44 109.1 702.14 109.13 701.84 109.17 695.05 110.36 688.25 111.54 687.84 111.53 687.44 111.52 687.06 111.38 686.68 111.25 686.36 110.99 686.05 110.74 685.83 110.4 685.61 110.06 685.51 109.67 685.41 109.27 685.44 108.87 685.48 108.47 685.63 108.1 685.79 107.72 686.06 107.42 686.33 107.12 686.68 106.92 687.03 106.72 687.43 106.64 687.83 106.57 688.23 106.62 688.63 106.67 688.99 106.85 689.36 107.03 689.64 107.32 689.93 107.6 690.11 107.96 690.29 108.33 690.35 108.73 690.4 109.13 690.33 109.52 690.25 109.92 690.05 110.27 689.86 110.63 689.56 110.9 689.25 111.17 688.88 111.33 688.51 111.49 688.11 111.52 687.71 111.56 687.31 111.46 686.92 111.36 686.58 111.15 686.24 110.93 685.98 110.62 685.73 110.3 685.59 109.92 685.45 109.54 685.44 109.14 685.43 108.73 685.54 108.35 685.66 107.96 685.9 107.63 686.13 107.3 686.46 107.07 686.79 106.83 687.17 106.71 687.56 106.59 687.56 106.59 687.56 106.59 691.89 106.03 696.23 105.47 699.04 104.82 701.85 104.17 702.14 104.21 702.44 104.24 702.73 104.35 703.01 104.46 703.26 104.63 703.5 104.8 703.7 105.02 703.9 105.25 704.04 105.52 704.18 105.78 704.25 106.08 704.33 106.37 704.33 106.67 704.33 106.97 704.25 107.26 704.18 107.56 704.04 107.82 703.9 108.09 703.7 108.32 703.5 108.54 703.25 108.71 703.01 108.88 702.72 108.99 702.44 109.1 702.14 109.13 701.84 109.17 699.24 109.17 696.64 109.17 693.31 109.17 689.99 109.16 686.72 109.14 683.44 109.12 680.49 108.99 677.53 108.85 674.49 108.22 671.44 107.58 665.9 107.02 660.37 106.46 656.45 106.36 652.54 106.26 646.37 105.71 640.2 105.16 635.8 105.15 631.4 105.13 628.37 105.02 625.34 104.92 621.48 104.37 617.62 103.83 613.44 103.83 609.26 103.83 604.22 103.83 599.18 103.83 592.28 103.83 585.39 103.83 580.65 103.83 575.91 103.83 570.82 103.83 565.73 103.82 561.81 103.81 557.89 103.79 554.46 103.69 551.04 103.6 544.42 103.05 537.8 102.5 530.8 102.5 523.8 102.5 518.43 102.5 513.06 102.5 507.53 102.5 501.99 102.49 495.43 102.48 488.86 102.46 486.33 102.36 483.79 102.26 468.88 101.67 453.96 101.09 447.41 100.87 440.86 100.65 432.5 99.46 424.14 98.27 416.89 97.71 409.64 97.16 402.25 97.15 394.86 97.13 387.21 97.03 379.56 96.93 370.83 96.36 362.1 95.79 352.59 95.7 343.08 95.6 333.09 95.05 323.11 94.5 316.05 94.5 308.99 94.5 303.28 94.5 297.57 94.5 293.29 94.5 289 94.5 283.3 94.5 277.6 94.5 270.12 94.5 262.64 94.51 257.7 94.52 252.76 94.54 249.79 94.6 246.82 94.67 244.04 95.25 241.25 95.82 238.51 95.7 235.76 95.58 231.14 95.02 226.52 94.46 221.35 94.37 216.19 94.27 205.62 93.72 195.05 93.17 184.62 93.17 174.18 93.17 164.85 93.17 155.53 93.17 149.49 93.17 143.46 93.17 139.49 93.17 135.51 93.16 135.21 93.15 134.91 93.13 134.62 93.04 134.34 92.95 134.08 92.8 133.82 92.64 133.6 92.43 133.39 92.22 133.23 91.96 133.08 91.71 132.98 91.42 132.89 91.13 132.87 90.83 132.85 90.53 132.91 90.23 132.96 89.94 133.08 89.66 133.2 89.39 133.39 89.15 133.57 88.91 133.81 88.72 134.05 88.54 134.32 88.41 134.59 88.29 134.89 88.23 135.19 88.17 137.06 88.06 138.93 87.95 142.38 87.29 145.83 86.63 151.94 86 158.06 85.38 161.31 84.75 164.56 84.13 167.5 84.07 170.45 84 175.33 83.41 180.21 82.81 182.72 82.15 185.23 81.49 188.32 81.43 191.41 81.37 194.77 80.7 198.13 80.03 201.91 79.4 205.68 78.77 209.11 78.12 212.54 77.46 215.42 77.41 218.3 77.35 220.77 76.76 223.25 76.17 226.35 76.17 229.46 76.16 234.58 76.15 239.71 76.14 242.52 75.49 245.34 74.84 247.93 74.75 250.52 74.66 253.33 74.08 256.13 73.5 260.1 73.5 264.06 73.5 267.68 73.48 271.3 73.46 274.46 73.39 277.63 73.31 281.17 72.74 284.7 72.18 288.07 72.19 291.43 72.21 294.93 72.32 298.43 72.43 301.52 72.97 304.62 73.5 309.87 73.5 315.12 73.5 317.85 73.5 320.57 73.5 325.18 73.5 329.79 73.5 335.8 73.5 341.81 73.5 347.88 73.5 353.94 73.5 357.03 73.5 360.13 73.5 365.33 73.5 370.53 73.5 375.09 73.5 379.64 73.5 383.63 73.5 387.63 73.5 391.6 73.5 395.57 73.5 399.4 73.5 403.22 73.5 406.21 73.5 409.2 73.5 417.02 73.5 424.83 73.5 428.51 73.5 432.18 73.51 437.5 73.52 442.82 73.54 448.02 73.64 453.22 73.73 460.52 74.28 467.83 74.83 472.3 74.83 476.78 74.83 481.55 74.85 486.32 74.87 493.61 74.97 500.91 75.07 507.43 75.64 513.94 76.21 516.89 76.31 519.85 76.41 527.05 76.97 534.25 77.54 541.4 77.64 548.55 77.74 554.07 78.28 559.59 78.83 563.46 78.83 567.33 78.83 570.59 78.83 573.84 78.83 576.7 78.83 579.55 78.83 583.35 78.83 587.14 78.83 589.94 78.83 592.73 78.83 599.39 78.83 606.05 78.83 612.68 78.83 619.32 78.83 625.77 78.83 632.23 78.83 637.68 78.83 643.13 78.82 649.12 78.81 655.12 78.79 661.1 78.69 667.07 78.59 675.55 77.66 684.02 76.73 696.18 74.84 708.35 72.95 713.56 71.13 718.78 69.3 721.65 66.73 724.53 64.17 724.83 64.2 725.13 64.22 725.42 64.31 725.71 64.41 725.96 64.57 726.22 64.73 726.43 64.94 726.64 65.16 726.79 65.42 726.94 65.68 727.03 65.97 727.11 66.26 727.12 66.56 727.14 66.86 727.08 67.16 727.02 67.45 726.89 67.73 726.76 68 726.57 68.23 726.38 68.47 726.14 68.65 725.9 68.83 725.63 68.95 725.35 69.07 725.05 69.12 724.76 69.17 724.7 69.17 724.64 69.17 722.38 69.26 720.13 69.34 715.14 69.92 710.15 70.5 707.28 70.5 704.41 70.5 700.52 70.5 696.63 70.49 693.29 70.48 689.95 70.46 684.37 69.81 678.78 69.17 676.38 69.15 673.99 69.13 670.59 68.99 667.2 68.85 663.82 68.32 660.43 67.79 654.68 67.14 648.92 66.5 644.22 66.5 639.52 66.49 636.72 66.48 633.92 66.46 630.47 66.35 627.02 66.23 624.35 65.7 621.69 65.17 617.7 65.17 613.71 65.17 609.74 65.17 605.78 65.17 601.98 65.17 598.18 65.17 595.38 65.17 592.58 65.17 589.13 65.17 585.67 65.17 578.36 65.17 571.04 65.16 563.81 65.15 556.58 65.13 549.85 65.03 543.12 64.93 536.73 64.38 530.33 63.83 527.89 63.83 525.46 63.82 517.59 63.81 509.73 63.79 505.74 63.67 501.76 63.55 497.21 63.02 492.67 62.5 489.43 62.5 486.18 62.5 483.39 62.5 480.59 62.5 477.16 62.5 473.73 62.5 469.82 62.5 465.92 62.5 462.47 62.5 459.03 62.5 455.01 62.5 451 62.5 446.92 62.5 442.84 62.5 438.36 62.5 433.89 62.5 430.38 62.5 426.86 62.49 422.47 62.48 418.08 62.46 408.48 62.36 398.88 62.27 391.83 61.71 384.78 61.16 381.82 61.15 378.86 61.13 367.88 61.03 356.89 60.93 351.71 60.38 346.52 59.82 341.27 59.81 336.01 59.79 331.17 59.69 326.33 59.59 321.43 59.04 316.52 58.5 309.68 58.5 302.83 58.5 298.33 58.5 293.84 58.5 290.2 58.5 286.56 58.5 281.4 58.5 276.24 58.5 271.94 58.5 267.64 58.5 265.11 58.5 262.59 58.5 257.5 58.5 252.41 58.5 248.54 58.5 244.67 58.49 241.43 58.48 238.19 58.46 232.16 58.37 226.14 58.28 217.16 57.74 208.19 57.21 197.23 57.31 186.28 57.4 173.66 57.97 161.04 58.54 158.48 58.65 155.91 58.76 147.28 59.4 138.65 60.04 134.35 61.02 130.04 62 129.76 62.09 129.47 62.19 129.17 62.21 128.87 62.23 128.57 62.18 128.27 62.13 128 62.01 127.72 61.89 127.48 61.71 127.24 61.53 127.05 61.29 126.86 61.06 126.73 60.79 126.61 60.51 126.55 60.22 126.49 59.92 126.5 59.62 126.52 59.32 126.6 59.03 126.69 58.74 126.84 58.48 126.99 58.22 127.2 58.01 127.41 57.79 127.67 57.63 127.92 57.47 130.42 56.27 132.91 55.06 135.08 54.18 137.24 53.29 140.09 52.62 142.93 51.94 146.4 51.27 149.88 50.59 153.82 49.93 157.77 49.27 161.41 48.64 165.06 48.01 168.39 47.34 171.73 46.67 174.36 46.09 176.99 45.5 179.44 45.5 181.89 45.5 186.16 45.5 190.43 45.49 194.69 45.48 198.96 45.46 201.26 45.41 203.56 45.35 205.95 44.76 208.34 44.17 212.55 44.1 216.75 44.04 220.32 43.44 223.89 42.83 226.8 42.81 229.71 42.79 232.29 42.71 234.86 42.64 238.21 42.05 241.55 41.46 243.84 41.38 246.12 41.29 250.58 40.71 255.03 40.13 257.58 40.06 260.12 39.98 264.9 39.41 269.68 38.83 273.6 38.81 277.52 38.79 282.74 38.72 287.96 38.65 290.93 38.08 293.91 37.51 297 37.53 300.08 37.54 303.47 38.19 306.85 38.83 310.99 38.83 315.12 38.83 317.87 38.83 320.61 38.83 325.88 38.83 331.14 38.84 333.91 38.85 336.69 38.87 341.92 39.52 347.14 40.17 349.87 40.17 352.61 40.17 357.74 40.15 362.88 40.13 365.22 40.04 367.56 39.95 375.16 39.39 382.76 38.83 387.86 38.83 392.96 38.83 396.94 38.83 400.92 38.82 404.8 38.81 408.68 38.79 412.03 38.71 415.37 38.63 419.67 38.06 423.98 37.5 428.81 37.5 433.65 37.5 439.31 37.5 444.97 37.49 448.98 37.48 452.99 37.46 457.06 37.37 461.14 37.29 466.34 36.73 471.54 36.16 475.29 36.15 479.04 36.13 481.63 36.05 484.21 35.97 487.6 35.38 490.99 34.79 493.55 34.7 496.12 34.62 501.98 34.06 507.85 33.5 512.35 33.5 516.86 33.5 520.6 33.5 524.34 33.5 526.82 33.5 529.29 33.5 537.33 33.5 545.37 33.5 550.37 33.5 555.36 33.5 558.67 33.5 561.98 33.5 568.43 33.5 574.89 33.5 580.31 33.5 585.72 33.5 591.57 33.5 597.41 33.5 602.5 33.5 607.58 33.5 611.44 33.5 615.3 33.5 618.46 33.5 621.63 33.5 624.7 33.5 627.77 33.5 628.07 33.54 628.37 33.57 628.65 33.68 628.93 33.79 629.18 33.96 629.43 34.13 629.63 34.35 629.83 34.58 629.97 34.85 630.11 35.11 630.18 35.41 630.25 35.7 630.25 36 630.25 36.3 630.18 36.59 630.11 36.89 629.97 37.15 629.83 37.42 629.63 37.65 629.43 37.87 629.18 38.04 628.93 38.21 628.65 38.32 628.37 38.43 628.07 38.46 627.77 38.5 625.57 38.5 623.37 38.5 620.2 38.5 617.03 38.5 614.65 38.5 612.28 38.5 609.1 38.48 605.93 38.46 602.6 38.36 599.28 38.26 593.29 37.72 587.31 37.17 583.99 37.17 580.67 37.16 577.41 37.15 574.16 37.13 571.29 37.01 568.43 36.89 564.16 36.36 559.9 35.83 554.76 35.83 549.62 35.82 545.46 35.81 541.29 35.79 536.33 35.69 531.38 35.59 525.66 35.05 519.94 34.5 514.92 34.5 509.89 34.49 503.11 34.48 496.34 34.46 489.02 34.36 481.7 34.26 475.05 33.69 468.4 33.13 461.28 33.03 454.16 32.93 445.23 32.36 436.3 31.79 428.94 31.7 421.58 31.6 411.18 31.05 400.77 30.5 394.53 30.5 388.28 30.5 371.07 30.5 353.86 30.5 343.76 30.5 333.65 30.5 323.04 30.5 312.42 30.5 305.32 30.5 298.22 30.5 292.24 30.5 286.27 30.5 273.9 30.5 261.54 30.5 247.41 30.5 233.28 30.5 218.5 30.5 203.72 30.5 191.65 30.5 179.58 30.5 167.14 30.5 154.71 30.5 149.93 30.5 145.15 30.5 136.55 30.5 127.96 30.5 122.98 30.16 118 29.82 117.78 29.8 117.56 29.77 117.36 29.69 117.15 29.61 116.97 29.49 116.79 29.36 116.65 29.2 116.5 29.04 116.4 28.84 116.3 28.65 116.24 28.43 116.19 28.22 116.19 28 116.19 27.78 116.24 27.57 116.3 27.35 116.4 27.16 116.5 26.96 116.65 26.8 116.79 26.64 116.97 26.51 117.15 26.39 117.36 26.31 117.56 26.23 117.78 26.2 118 26.18 118 26.18 Z"></path><path d="M 159.46 124.85 Q 159.46 124.85 175.53 125.62 191.6 126.38 227.5 128.23 263.41 130.08 337.57 133.16 411.72 136.24 499.56 138.42 587.4 140.61 635.54 142.09 683.69 143.57 684.09 143.64 684.48 143.72 684.83 143.92 685.18 144.12 685.45 144.42 685.72 144.73 685.88 145.1 686.04 145.47 686.07 145.87 686.1 146.28 686 146.67 685.9 147.06 685.69 147.4 685.47 147.74 685.15 147.99 684.83 148.24 684.45 148.38 684.07 148.52 683.67 148.53 683.26 148.54 682.88 148.42 682.49 148.3 682.16 148.06 681.84 147.83 681.6 147.5 681.37 147.17 681.25 146.78 681.13 146.39 681.15 145.99 681.16 145.58 681.3 145.2 681.44 144.83 681.69 144.51 681.95 144.2 682.29 143.98 682.63 143.76 683.03 143.67 683.42 143.57 683.82 143.61 684.22 143.64 684.6 143.8 684.97 143.96 685.27 144.23 685.57 144.51 685.76 144.86 685.96 145.21 686.04 145.61 686.11 146.01 686.05 146.41 686 146.81 685.82 147.17 685.64 147.53 685.35 147.82 685.06 148.1 684.7 148.28 684.34 148.46 683.93 148.51 683.53 148.56 683.53 148.56 683.53 148.56 635.41 147.08 587.28 145.6 499.4 143.42 411.51 141.24 337.33 138.15 263.15 135.07 227.2 133.22 191.25 131.37 175.23 129.93 159.2 128.49 158.99 128.45 158.77 128.41 158.57 128.31 158.37 128.22 158.2 128.08 158.03 127.95 157.9 127.77 157.76 127.6 157.67 127.4 157.59 127.2 157.55 126.98 157.51 126.76 157.53 126.55 157.54 126.33 157.61 126.12 157.67 125.91 157.79 125.72 157.9 125.53 158.06 125.38 158.22 125.23 158.41 125.11 158.6 125 158.81 124.94 159.02 124.87 159.24 124.86 159.46 124.85 159.46 124.85 Z"></path><path d="M 159.46 124.85 Q 159.46 124.85 175.53 125.62 191.6 126.38 227.5 128.23 263.41 130.08 337.57 133.16 411.72 136.24 499.56 138.42 587.4 140.61 635.54 142.09 683.69 143.57 684.09 143.64 684.48 143.72 684.83 143.92 685.18 144.12 685.45 144.42 685.72 144.73 685.88 145.1 686.04 145.47 686.07 145.87 686.1 146.28 686 146.67 685.9 147.06 685.69 147.4 685.47 147.74 685.15 147.99 684.83 148.24 684.45 148.38 684.07 148.52 683.67 148.53 683.26 148.54 682.88 148.42 682.49 148.3 682.16 148.06 681.84 147.83 681.6 147.5 681.37 147.17 681.25 146.78 681.13 146.39 681.15 145.99 681.16 145.58 681.3 145.2 681.44 144.83 681.69 144.51 681.95 144.2 682.29 143.98 682.63 143.76 683.03 143.67 683.42 143.57 683.82 143.61 684.22 143.64 684.6 143.8 684.97 143.96 685.27 144.23 685.57 144.51 685.76 144.86 685.96 145.21 686.04 145.61 686.11 146.01 686.05 146.41 686 146.81 685.82 147.17 685.64 147.53 685.35 147.82 685.06 148.1 684.7 148.28 684.34 148.46 683.93 148.51 683.53 148.56 683.53 148.56 683.53 148.56 635.41 147.08 587.28 145.6 499.4 143.42 411.51 141.24 337.33 138.15 263.15 135.07 227.2 133.22 191.25 131.37 175.23 129.93 159.2 128.49 158.99 128.45 158.77 128.41 158.57 128.31 158.37 128.22 158.2 128.08 158.03 127.95 157.9 127.77 157.76 127.6 157.67 127.4 157.59 127.2 157.55 126.98 157.51 126.76 157.53 126.55 157.54 126.33 157.61 126.12 157.67 125.91 157.79 125.72 157.9 125.53 158.06 125.38 158.22 125.23 158.41 125.11 158.6 125 158.81 124.94 159.02 124.87 159.24 124.86 159.46 124.85 159.46 124.85 Z"></path><path d="M 159.46 124.85 Q 159.46 124.85 175.53 125.62 191.6 126.38 227.5 128.23 263.41 130.08 337.57 133.16 411.72 136.24 499.56 138.42 587.4 140.61 635.54 142.09 683.69 143.57 684.09 143.64 684.48 143.72 684.83 143.92 685.18 144.12 685.45 144.42 685.72 144.73 685.88 145.1 686.04 145.47 686.07 145.87 686.1 146.28 686 146.67 685.9 147.06 685.69 147.4 685.47 147.74 685.15 147.99 684.83 148.24 684.45 148.38 684.07 148.52 683.67 148.53 683.26 148.54 682.88 148.42 682.49 148.3 682.16 148.06 681.84 147.83 681.6 147.5 681.37 147.17 681.25 146.78 681.13 146.39 681.15 145.99 681.16 145.58 681.3 145.2 681.44 144.83 681.69 144.51 681.95 144.2 682.29 143.98 682.63 143.76 683.03 143.67 683.42 143.57 683.82 143.61 684.22 143.64 684.6 143.8 684.97 143.96 685.27 144.23 685.57 144.51 685.76 144.86 685.96 145.21 686.04 145.61 686.11 146.01 686.05 146.41 686 146.81 685.82 147.17 685.64 147.53 685.35 147.82 685.06 148.1 684.7 148.28 684.34 148.46 683.93 148.51 683.53 148.56 683.53 148.56 683.53 148.56 635.41 147.08 587.28 145.6 499.4 143.42 411.51 141.24 337.33 138.15 263.15 135.07 227.2 133.22 191.25 131.37 175.23 129.93 159.2 128.49 158.99 128.45 158.77 128.41 158.57 128.31 158.37 128.22 158.2 128.08 158.03 127.95 157.9 127.77 157.76 127.6 157.67 127.4 157.59 127.2 157.55 126.98 157.51 126.76 157.53 126.55 157.54 126.33 157.61 126.12 157.67 125.91 157.79 125.72 157.9 125.53 158.06 125.38 158.22 125.23 158.41 125.11 158.6 125 158.81 124.94 159.02 124.87 159.24 124.86 159.46 124.85 159.46 124.85 Z"></path><path d="M 146 152.85 Q 146 152.85 148.21 152.51 150.42 152.17 153.93 151.63 157.45 151.09 170.98 150.98 184.51 150.87 199.52 150.85 214.52 150.84 253.61 151.39 292.7 151.94 353.58 153.7 414.47 155.45 474.61 156.85 534.75 158.26 589.26 160.16 643.76 162.05 685.19 165.7 726.61 169.35 739.19 170.53 751.77 171.7 753.9 172.45 756.03 173.2 756.32 173.27 756.62 173.33 756.89 173.46 757.16 173.6 757.39 173.79 757.62 173.98 757.8 174.23 757.98 174.47 758.09 174.75 758.2 175.03 758.25 175.33 758.29 175.62 758.27 175.92 758.24 176.22 758.14 176.51 758.04 176.79 757.88 177.05 757.71 177.3 757.49 177.5 757.27 177.71 757.01 177.86 756.75 178 756.45 178.08 756.16 178.16 755.86 178.17 755.56 178.18 748.66 180.47 741.76 182.76 715.31 184.32 688.86 185.88 648.41 187.24 607.97 188.61 560.08 187.18 512.18 185.75 490.7 183.85 469.22 181.94 432.35 177.74 395.48 173.53 364.89 170.61 334.3 167.69 329.64 167.19 324.97 166.69 324.18 166.61 323.39 166.52 323.09 166.45 322.8 166.38 322.53 166.25 322.26 166.11 322.03 165.92 321.81 165.72 321.63 165.47 321.46 165.23 321.35 164.95 321.24 164.67 321.19 164.37 321.15 164.07 321.19 163.77 321.22 163.47 321.32 163.19 321.42 162.9 321.59 162.65 321.76 162.4 321.98 162.2 322.2 162 322.47 161.85 322.73 161.71 323.03 161.63 323.32 161.56 323.62 161.55 323.92 161.55 328.77 162.09 333.62 162.62 354.27 163.27 374.91 163.91 398.32 164.02 421.74 164.12 447.91 165.25 474.08 166.37 486.84 167.12 499.6 167.87 501.76 168 503.93 168.12 504.23 168.18 504.52 168.23 504.8 168.35 505.07 168.48 505.31 168.66 505.55 168.85 505.73 169.08 505.92 169.32 506.04 169.6 506.17 169.87 506.22 170.17 506.28 170.46 506.26 170.76 506.24 171.06 506.15 171.35 506.06 171.64 505.91 171.9 505.75 172.16 505.54 172.37 505.33 172.58 505.07 172.74 504.81 172.9 504.53 172.99 504.24 173.08 503.94 173.09 503.64 173.11 500.71 174.68 497.79 176.25 467.46 178.86 437.13 181.47 388.25 182.45 339.37 183.43 280.7 183.6 222.03 183.76 178.29 183.24 134.55 182.71 109.39 182.07 84.23 181.43 78.85 181.32 73.47 181.21 73.17 181.17 72.87 181.13 72.6 181.01 72.32 180.9 72.07 180.72 71.83 180.54 71.64 180.31 71.44 180.08 71.31 179.81 71.18 179.54 71.11 179.25 71.05 178.95 71.05 178.65 71.06 178.35 71.14 178.06 71.22 177.77 71.37 177.51 71.51 177.24 71.72 177.02 71.93 176.8 72.18 176.64 72.43 176.47 72.71 176.37 73 176.27 73.3 176.24 73.6 176.22 85.32 175.64 97.04 175.07 100.74 174.97 104.43 174.87 131.15 175.96 157.86 177.06 210.63 183.34 263.39 189.62 279.6 192.35 295.8 195.09 302.5 196.67 309.2 198.26 312.26 199.2 315.32 200.14 315.7 200.26 316.09 200.39 316.41 200.63 316.74 200.87 316.97 201.2 317.2 201.53 317.32 201.92 317.43 202.31 317.41 202.71 317.4 203.12 317.25 203.49 317.11 203.87 316.85 204.18 316.59 204.5 316.25 204.71 315.9 204.92 315.51 205.01 315.12 205.11 314.71 205.07 314.31 205.03 313.94 204.87 313.57 204.7 313.28 204.43 312.98 204.15 312.78 203.8 312.59 203.44 312.52 203.04 312.45 202.65 312.51 202.25 312.57 201.85 312.75 201.49 312.94 201.13 313.23 200.84 313.52 200.56 313.88 200.39 314.25 200.21 314.65 200.16 315.05 200.11 315.45 200.2 315.84 200.28 316.19 200.48 316.54 200.69 316.81 200.99 317.07 201.3 317.23 201.67 317.38 202.04 317.41 202.45 317.44 202.85 317.33 203.24 317.23 203.63 317.01 203.97 316.79 204.31 316.47 204.56 316.15 204.81 315.77 204.94 315.39 205.07 314.98 205.08 314.58 205.08 314.58 205.08 314.58 205.09 311.31 204.1 308.04 203.12 301.51 201.57 294.97 200.02 278.88 197.3 262.8 194.58 210.23 188.32 157.66 182.05 131.11 180.96 104.56 179.87 100.92 179.97 97.28 180.06 85.38 180.64 73.47 181.21 73.17 181.17 72.87 181.13 72.6 181.01 72.32 180.9 72.07 180.72 71.83 180.54 71.64 180.31 71.44 180.08 71.31 179.81 71.18 179.54 71.11 179.25 71.05 178.95 71.05 178.65 71.06 178.35 71.14 178.06 71.22 177.77 71.37 177.51 71.51 177.24 71.72 177.02 71.93 176.8 72.18 176.64 72.43 176.47 72.71 176.37 73 176.27 73.3 176.24 73.6 176.22 78.98 176.32 84.36 176.43 109.49 177.07 134.61 177.71 178.31 178.24 222.02 178.76 280.64 178.6 339.27 178.43 388 177.46 436.72 176.49 466.23 174.1 495.74 171.71 499.84 169.92 503.93 168.12 504.23 168.18 504.52 168.23 504.8 168.35 505.07 168.48 505.31 168.66 505.55 168.85 505.73 169.08 505.92 169.32 506.04 169.6 506.17 169.87 506.22 170.17 506.28 170.46 506.26 170.76 506.24 171.06 506.15 171.35 506.06 171.64 505.91 171.9 505.75 172.16 505.54 172.37 505.33 172.58 505.07 172.74 504.81 172.9 504.53 172.99 504.24 173.08 503.94 173.09 503.64 173.11 501.47 172.99 499.3 172.86 486.58 172.11 473.86 171.37 447.79 170.25 421.71 169.12 398.23 169.01 374.75 168.9 353.91 168.25 333.07 167.59 328.23 167.06 323.39 166.52 323.09 166.45 322.8 166.38 322.53 166.25 322.26 166.11 322.04 165.92 321.81 165.72 321.63 165.47 321.46 165.23 321.35 164.95 321.24 164.67 321.19 164.37 321.15 164.07 321.19 163.77 321.22 163.47 321.32 163.19 321.42 162.9 321.59 162.65 321.76 162.4 321.98 162.2 322.2 162 322.47 161.85 322.73 161.71 323.03 161.63 323.32 161.56 323.62 161.55 323.92 161.55 324.71 161.63 325.5 161.72 330.14 162.21 334.78 162.71 365.41 165.64 396.04 168.57 432.85 172.76 469.66 176.96 491 178.86 512.33 180.76 560.07 182.18 607.8 183.61 648.19 182.25 688.57 180.89 714.43 179.44 740.29 177.98 748.16 175.59 756.03 173.2 756.32 173.27 756.62 173.33 756.89 173.46 757.16 173.6 757.39 173.79 757.62 173.98 757.8 174.23 757.98 174.47 758.09 174.75 758.2 175.03 758.25 175.32 758.29 175.62 758.27 175.92 758.24 176.22 758.14 176.51 758.04 176.79 757.88 177.04 757.71 177.3 757.49 177.5 757.27 177.71 757.01 177.86 756.75 178 756.46 178.08 756.16 178.16 755.86 178.17 755.56 178.18 753.42 177.43 751.27 176.67 738.72 175.5 726.17 174.33 684.88 170.69 643.59 167.05 589.11 165.15 534.63 163.25 474.48 161.85 414.33 160.45 353.48 158.7 292.63 156.94 253.58 156.39 214.53 155.84 199.54 155.85 184.55 155.87 171.37 155.95 158.18 156.03 154.31 156.6 150.43 157.17 148.21 156.83 146 156.49 145.78 156.47 145.56 156.44 145.36 156.36 145.15 156.28 144.97 156.16 144.79 156.03 144.65 155.87 144.5 155.71 144.4 155.51 144.3 155.32 144.24 155.1 144.19 154.89 144.19 154.67 144.19 154.45 144.24 154.24 144.3 154.02 144.4 153.83 144.5 153.63 144.65 153.47 144.79 153.31 144.97 153.18 145.15 153.06 145.36 152.98 145.56 152.9 145.78 152.87 146 152.85 146 152.85 Z"></path><path d="M 84.21 252.97 Q 84.21 252.97 84.43 250.14 84.65 247.31 85.93 243.85 87.2 240.39 91.52 235.59 95.83 230.78 97.85 229.3 99.86 227.81 108.34 225.74 116.81 223.67 122.25 223.32 127.7 222.97 132.53 222.91 137.35 222.85 144.37 223.4 151.38 223.96 159.44 226.31 167.51 228.66 171.53 229.58 175.56 230.51 179.81 232.41 184.06 234.31 187.61 236.33 191.17 238.36 193.05 239.94 194.94 241.52 196.54 243.66 198.14 245.8 198 249.1 197.86 252.39 197.19 255.1 196.51 257.8 195.02 259.51 193.53 261.22 190.64 262.31 187.75 263.39 183.49 263.61 179.22 263.82 176.65 262.99 174.07 262.16 172.51 259.89 170.95 257.63 171.73 251.82 172.51 246.01 175.25 242.06 178 238.11 181.97 235.73 185.95 233.35 191.04 230.75 196.13 228.16 200.21 226.36 204.29 224.57 208.16 223.86 212.03 223.15 220.61 223.01 229.2 222.88 235.62 222.86 242.04 222.84 252.53 222.83 263.03 222.83 273.18 223.39 283.34 223.95 292.89 225.15 302.45 226.36 304.86 227.18 307.28 228 310.55 230.17 313.81 232.35 315.39 235.07 316.97 237.8 318.26 239.8 319.56 241.8 321.54 246.2 323.52 250.6 323.98 253.77 324.45 256.94 322.96 259.81 321.46 262.67 318.74 263.88 316.02 265.09 313 264.28 309.99 263.46 308.55 261.46 307.11 259.46 306.21 257.23 305.3 254.99 305.09 250.95 304.88 246.92 304.86 244.48 304.83 242.04 305.97 237.04 307.11 232.03 307.92 229.93 308.73 227.83 310.8 225.44 312.87 223.06 315.83 221.87 318.8 220.68 321.33 219.47 323.85 218.26 329.52 216.85 335.19 215.44 341.22 214.64 347.26 213.84 356.71 213.7 366.16 213.55 375.65 214.65 385.14 215.74 393.88 216.47 402.62 217.21 408.69 218.46 414.76 219.72 419.19 221.06 423.63 222.4 427.54 225.48 431.45 228.57 431.92 231.06 432.38 233.56 432.43 236.81 432.48 240.05 431.9 242.54 431.32 245.03 431.26 247.38 431.2 249.74 429.64 253.32 428.08 256.9 425.2 258.15 422.32 259.39 418.11 259.02 413.91 258.65 411.43 258 408.95 257.34 405.93 254.94 402.92 252.55 401.9 247.6 400.88 242.65 400.86 239.89 400.84 237.13 400.84 234.45 400.83 231.76 401.41 228.31 401.99 224.85 403.32 222.28 404.65 219.7 406.69 217.42 408.73 215.14 410.89 213.52 413.04 211.91 415.77 210.46 418.49 209 423.14 208.1 427.79 207.19 430.68 206.52 433.57 205.84 439.3 205.7 445.04 205.55 454.44 206.64 463.84 207.74 470.38 209.1 476.92 210.45 480.03 211.82 483.14 213.18 486.39 214.51 489.64 215.83 492.75 218.48 495.86 221.13 497.62 223.44 499.39 225.75 500.47 230.68 501.54 235.61 501.05 239.3 500.56 242.98 498.13 245.78 495.71 248.58 491.41 249.51 487.11 250.45 484.06 249.31 481.01 248.16 481.53 244.77 482.05 241.38 482.68 238.9 483.31 236.42 483.98 233.76 484.65 231.1 488.81 224.75 492.96 218.39 494.84 216.14 496.73 213.89 500.68 211.6 504.64 209.31 509.35 207.76 514.07 206.21 523.33 204.81 532.59 203.41 537.01 203.17 541.43 202.93 547.09 202.34 552.74 201.76 562.27 202.76 571.8 203.77 576.75 204.5 581.7 205.23 586.69 207.1 591.67 208.96 595.65 212.34 599.63 215.72 600.56 218.42 601.49 221.11 602.16 223.72 602.82 226.32 603.51 230.76 604.2 235.19 604.33 239.39 604.45 243.6 603.87 247.11 603.29 250.61 601.59 253.37 599.88 256.13 597.68 256.64 595.47 257.14 592.66 255.92 589.85 254.7 585.89 251.58 581.93 248.45 579.72 243.97 577.51 239.48 576.69 235.43 575.86 231.38 575.71 227.77 575.56 224.15 576.11 220.55 576.66 216.94 578.58 213.18 580.5 209.42 583.38 207.35 586.26 205.27 589.66 203.77 593.06 202.27 595.61 201.94 598.16 201.61 601.98 201.56 605.79 201.52 613.26 202.63 620.73 203.75 628.12 205.06 635.51 206.37 648.26 214.51 661 222.65 663.95 225.99 666.89 229.33 667.59 233.16 668.29 236.99 668.38 239.33 668.47 241.68 667.1 245.84 665.72 250 663.3 251.34 660.88 252.68 657.55 252.14 654.23 251.61 652.9 246.96 651.56 242.3 653.3 238.08 655.04 233.85 655.88 231.57 656.72 229.3 659.93 226.25 663.14 223.2 667.12 220.43 671.1 217.67 677.18 216.47 683.25 215.28 688.69 214.55 694.13 213.82 697.94 213.69 701.74 213.55 702.92 213.53 704.1 213.51 704.4 213.54 704.7 213.56 704.99 213.66 705.27 213.76 705.53 213.92 705.78 214.08 705.99 214.3 706.19 214.52 706.34 214.78 706.49 215.04 706.57 215.33 706.66 215.62 706.67 215.93 706.68 216.23 706.61 216.52 706.55 216.82 706.42 217.09 706.29 217.36 706.1 217.59 705.91 217.82 705.66 218 705.42 218.18 705.14 218.3 704.86 218.41 704.57 218.46 704.27 218.51 702.36 222.41 700.45 226.32 700.14 226.58 699.83 226.84 699.45 226.98 699.08 227.13 698.67 227.15 698.27 227.17 697.88 227.06 697.49 226.95 697.16 226.72 696.82 226.49 696.58 226.16 696.34 225.84 696.21 225.46 696.09 225.07 696.09 224.67 696.09 224.26 696.22 223.88 696.36 223.5 696.6 223.18 696.85 222.86 697.19 222.63 697.52 222.41 697.91 222.3 698.3 222.2 698.71 222.22 699.11 222.25 699.49 222.4 699.86 222.55 700.17 222.82 700.47 223.08 700.68 223.43 700.88 223.78 700.97 224.17 701.05 224.57 701.01 224.97 700.96 225.37 700.79 225.74 700.61 226.1 700.33 226.39 700.05 226.69 699.7 226.87 699.34 227.06 698.94 227.12 698.54 227.19 698.14 227.12 697.74 227.05 697.38 226.86 697.03 226.66 696.75 226.37 696.48 226.07 696.31 225.7 696.14 225.34 696.1 224.93 696.06 224.53 696.15 224.14 696.24 223.74 696.45 223.4 696.66 223.05 696.66 223.05 696.66 223.05 697.86 221.71 699.06 220.36 701.58 216.93 704.1 213.51 704.4 213.54 704.7 213.56 704.99 213.66 705.27 213.76 705.53 213.92 705.78 214.08 705.99 214.3 706.19 214.52 706.34 214.78 706.49 215.04 706.57 215.33 706.66 215.62 706.67 215.93 706.68 216.23 706.61 216.52 706.55 216.82 706.42 217.09 706.29 217.36 706.1 217.59 705.91 217.82 705.66 218 705.42 218.18 705.14 218.3 704.87 218.41 704.57 218.46 704.27 218.51 703.09 218.53 701.91 218.55 698.35 218.66 694.8 218.77 689.47 219.49 684.13 220.2 678.95 221.03 673.78 221.85 670.12 224.39 666.47 226.93 663.87 229.09 661.26 231.24 660.44 233.55 659.61 235.87 658.07 239.1 656.52 242.33 657.65 245.24 658.79 248.16 661.17 246.36 663.54 244.57 663.44 241.12 663.34 237.66 663.14 234.93 662.94 232.2 660.59 229.51 658.25 226.82 646.37 219.03 634.49 211.23 627.24 209.96 619.98 208.69 612.91 207.6 605.84 206.52 600.41 206.69 594.99 206.87 592 208.16 589.02 209.44 586.87 210.71 584.73 211.97 583.15 214.89 581.57 217.8 581.06 220.89 580.55 223.98 580.66 227.2 580.76 230.41 581.45 234 582.14 237.59 583.63 241.11 585.12 244.63 588.58 247.42 592.04 250.21 595.27 249.7 598.5 249.2 598.98 246.47 599.45 243.74 599.36 239.84 599.26 235.94 598.62 231.75 597.98 227.56 597.04 223.33 596.11 219.1 592.96 216.34 589.81 213.58 585.38 211.88 580.95 210.17 576.1 209.46 571.26 208.74 562.25 207.74 553.24 206.73 547.47 207.32 541.7 207.92 537.51 208.14 533.33 208.36 524.46 209.67 515.59 210.97 511.32 212.33 507.06 213.68 503.76 215.43 500.47 217.18 498.79 219.18 497.12 221.17 493.29 226.79 489.46 232.4 488.81 235.03 488.16 237.65 486.04 241.57 483.92 245.49 487.37 245.48 490.83 245.47 493.35 243.35 495.88 241.22 496.26 238.9 496.63 236.58 495.97 232.56 495.31 228.55 493.93 226.71 492.54 224.87 490.11 222.64 487.68 220.42 484.4 219.08 481.12 217.75 478.36 216.52 475.61 215.28 469.43 213.99 463.26 212.71 454.2 211.63 445.13 210.55 439.91 210.63 434.68 210.72 431.68 211.41 428.69 212.11 424.72 212.78 420.76 213.44 416.58 215.99 412.4 218.53 409.65 222.16 406.89 225.79 406.36 228.78 405.83 231.77 405.83 234.43 405.84 237.1 405.86 239.78 405.88 242.46 406.83 246.96 407.79 251.46 411.13 252.57 414.48 253.69 419.46 253.83 424.45 253.97 425.33 251.73 426.22 249.48 426.85 244.78 427.49 240.07 427.43 235.69 427.38 231.31 424.78 229.24 422.17 227.18 417.95 225.9 413.73 224.61 407.96 223.4 402.19 222.19 393.38 221.45 384.56 220.71 375.39 219.63 366.22 218.55 357.06 218.68 347.91 218.8 342.14 219.55 336.37 220.3 331.18 221.54 325.98 222.78 321.16 224.67 316.33 226.57 314.16 229.87 311.98 233.18 310.9 237.62 309.83 242.06 309.86 244.4 309.88 246.74 310.56 251.69 311.23 256.64 312.72 258.4 314.21 260.16 316.41 259.31 318.61 258.47 318.78 255.53 318.94 252.6 317.14 248.55 315.35 244.5 313.97 242.36 312.59 240.22 310.46 237.09 308.32 233.97 305.06 232.64 301.8 231.32 292.43 230.13 283.06 228.94 273.05 228.38 263.03 227.83 252.54 227.83 242.05 227.84 235.66 227.86 229.27 227.88 221.09 227.97 212.91 228.07 209.3 228.72 205.7 229.36 202.05 230.99 198.4 232.61 193.41 235.15 188.43 237.69 185.15 239.45 181.88 241.2 179.57 244.37 177.26 247.53 176.06 251.19 174.86 254.85 177.02 256.84 179.18 258.82 181.95 258.81 184.73 258.8 187.42 258.24 190.11 257.68 191.5 255.8 192.88 253.92 193.47 251.28 194.06 248.64 191.36 245.67 188.67 242.69 185.33 240.78 181.99 238.86 178.21 237.12 174.42 235.38 170.26 234.42 166.09 233.45 158.53 231.19 150.97 228.94 144.19 228.39 137.41 227.85 132.71 227.9 128.01 227.96 122.97 228.25 117.93 228.54 108.71 231.36 99.49 234.18 95.65 238.22 91.81 242.26 90.68 245.28 89.55 248.3 88.67 250.99 87.79 253.69 87.72 253.9 87.65 254.1 87.53 254.29 87.42 254.48 87.26 254.63 87.1 254.78 86.91 254.89 86.72 255 86.51 255.07 86.3 255.13 86.08 255.14 85.86 255.15 85.65 255.1 85.43 255.06 85.23 254.97 85.03 254.87 84.86 254.74 84.69 254.6 84.56 254.42 84.43 254.25 84.34 254.05 84.25 253.84 84.22 253.63 84.18 253.41 84.2 253.19 84.21 252.97 84.21 252.97 Z"></path><path d="M 84.21 252.97 Q 84.21 252.97 84.43 250.14 84.65 247.31 85.93 243.85 87.2 240.39 91.52 235.59 95.83 230.78 97.85 229.3 99.86 227.81 108.34 225.74 116.81 223.67 122.25 223.32 127.7 222.97 132.53 222.91 137.35 222.85 144.37 223.4 151.38 223.96 159.44 226.31 167.51 228.66 171.53 229.58 175.56 230.51 179.81 232.41 184.06 234.31 187.61 236.33 191.17 238.36 193.05 239.94 194.94 241.52 196.54 243.66 198.14 245.8 198 249.1 197.86 252.39 197.19 255.1 196.51 257.8 195.02 259.51 193.53 261.22 190.64 262.31 187.75 263.39 183.49 263.61 179.22 263.82 176.65 262.99 174.07 262.16 172.51 259.89 170.95 257.63 171.73 251.82 172.51 246.01 175.25 242.06 178 238.11 181.97 235.73 185.95 233.35 191.04 230.75 196.13 228.16 200.21 226.36 204.29 224.57 208.16 223.86 212.03 223.15 220.61 223.01 229.2 222.88 235.62 222.86 242.04 222.84 252.53 222.83 263.03 222.83 273.18 223.39 283.34 223.95 292.89 225.15 302.45 226.36 304.86 227.18 307.28 228 310.55 230.17 313.81 232.35 315.39 235.07 316.97 237.8 318.26 239.8 319.56 241.8 321.54 246.2 323.52 250.6 323.98 253.77 324.45 256.94 322.96 259.81 321.46 262.67 318.74 263.88 316.02 265.09 313 264.28 309.99 263.46 308.55 261.46 307.11 259.46 306.21 257.23 305.3 254.99 305.09 250.95 304.88 246.92 304.86 244.48 304.83 242.04 305.97 237.04 307.11 232.03 307.92 229.93 308.73 227.83 310.8 225.44 312.87 223.06 315.83 221.87 318.8 220.68 321.33 219.47 323.85 218.26 329.52 216.85 335.19 215.44 341.22 214.64 347.26 213.84 356.71 213.7 366.16 213.55 375.65 214.65 385.14 215.74 393.88 216.47 402.62 217.21 408.69 218.46 414.76 219.72 419.19 221.06 423.63 222.4 427.54 225.48 431.45 228.57 431.92 231.06 432.38 233.56 432.43 236.81 432.48 240.05 431.9 242.54 431.32 245.03 431.26 247.38 431.2 249.74 429.64 253.32 428.08 256.9 425.2 258.15 422.32 259.39 418.11 259.02 413.91 258.65 411.43 258 408.95 257.34 405.93 254.94 402.92 252.55 401.9 247.6 400.88 242.65 400.86 239.89 400.84 237.13 400.84 234.45 400.83 231.76 401.41 228.31 401.99 224.85 403.32 222.28 404.65 219.7 406.69 217.42 408.73 215.14 410.89 213.52 413.04 211.91 415.77 210.46 418.49 209 423.14 208.1 427.79 207.19 430.68 206.52 433.57 205.84 439.3 205.7 445.04 205.55 454.44 206.64 463.84 207.74 470.38 209.1 476.92 210.45 480.03 211.82 483.14 213.18 486.39 214.51 489.64 215.83 492.75 218.48 495.86 221.13 497.62 223.44 499.39 225.75 500.47 230.68 501.54 235.61 501.05 239.3 500.56 242.98 498.13 245.78 495.71 248.58 491.41 249.51 487.11 250.45 484.06 249.31 481.01 248.16 481.53 244.77 482.05 241.38 482.68 238.9 483.31 236.42 483.98 233.76 484.65 231.1 488.81 224.75 492.96 218.39 494.84 216.14 496.73 213.89 500.68 211.6 504.64 209.31 509.35 207.76 514.07 206.21 523.33 204.81 532.59 203.41 537.01 203.17 541.43 202.93 547.09 202.34 552.74 201.76 562.27 202.76 571.8 203.77 576.75 204.5 581.7 205.23 586.69 207.1 591.67 208.96 595.65 212.34 599.63 215.72 600.56 218.42 601.49 221.11 602.16 223.72 602.82 226.32 603.51 230.76 604.2 235.19 604.33 239.39 604.45 243.6 603.87 247.11 603.29 250.61 601.59 253.37 599.88 256.13 597.68 256.64 595.47 257.14 592.66 255.92 589.85 254.7 585.89 251.58 581.93 248.45 579.72 243.97 577.51 239.48 576.69 235.43 575.86 231.38 575.71 227.77 575.56 224.15 576.11 220.55 576.66 216.94 578.58 213.18 580.5 209.42 583.38 207.35 586.26 205.27 589.66 203.77 593.06 202.27 595.61 201.94 598.16 201.61 601.98 201.56 605.79 201.52 613.26 202.63 620.73 203.75 628.12 205.06 635.51 206.37 648.26 214.51 661 222.65 663.95 225.99 666.89 229.33 667.59 233.16 668.29 236.99 668.38 239.33 668.47 241.68 667.1 245.84 665.72 250 663.3 251.34 660.88 252.68 657.55 252.14 654.23 251.61 652.9 246.96 651.56 242.3 653.3 238.08 655.04 233.85 655.88 231.57 656.72 229.3 659.93 226.25 663.14 223.2 667.12 220.43 671.1 217.67 677.18 216.47 683.25 215.28 688.69 214.55 694.13 213.82 697.94 213.69 701.74 213.55 702.92 213.53 704.1 213.51 704.4 213.54 704.7 213.56 704.99 213.66 705.27 213.76 705.53 213.92 705.78 214.08 705.99 214.3 706.19 214.52 706.34 214.78 706.49 215.04 706.57 215.33 706.66 215.62 706.67 215.93 706.68 216.23 706.61 216.52 706.55 216.82 706.42 217.09 706.29 217.36 706.1 217.59 705.91 217.82 705.66 218 705.42 218.18 705.14 218.3 704.86 218.41 704.57 218.46 704.27 218.51 702.36 222.41 700.45 226.32 700.14 226.58 699.83 226.84 699.45 226.98 699.08 227.13 698.67 227.15 698.27 227.17 697.88 227.06 697.49 226.95 697.16 226.72 696.82 226.49 696.58 226.16 696.34 225.84 696.21 225.46 696.09 225.07 696.09 224.67 696.09 224.26 696.22 223.88 696.36 223.5 696.6 223.18 696.85 222.86 697.19 222.63 697.52 222.41 697.91 222.3 698.3 222.2 698.71 222.22 699.11 222.25 699.49 222.4 699.86 222.55 700.17 222.82 700.47 223.08 700.68 223.43 700.88 223.78 700.97 224.17 701.05 224.57 701.01 224.97 700.96 225.37 700.79 225.74 700.61 226.1 700.33 226.39 700.05 226.69 699.7 226.87 699.34 227.06 698.94 227.12 698.54 227.19 698.14 227.12 697.74 227.05 697.38 226.86 697.03 226.66 696.75 226.37 696.48 226.07 696.31 225.7 696.14 225.34 696.1 224.93 696.06 224.53 696.15 224.14 696.24 223.74 696.45 223.4 696.66 223.05 696.66 223.05 696.66 223.05 697.86 221.71 699.06 220.36 701.58 216.93 704.1 213.51 704.4 213.54 704.7 213.56 704.99 213.66 705.27 213.76 705.53 213.92 705.78 214.08 705.99 214.3 706.19 214.52 706.34 214.78 706.49 215.04 706.57 215.33 706.66 215.62 706.67 215.93 706.68 216.23 706.61 216.52 706.55 216.82 706.42 217.09 706.29 217.36 706.1 217.59 705.91 217.82 705.66 218 705.42 218.18 705.14 218.3 704.87 218.41 704.57 218.46 704.27 218.51 703.09 218.53 701.91 218.55 698.35 218.66 694.8 218.77 689.47 219.49 684.13 220.2 678.95 221.03 673.78 221.85 670.12 224.39 666.47 226.93 663.87 229.09 661.26 231.24 660.44 233.55 659.61 235.87 658.07 239.1 656.52 242.33 657.65 245.24 658.79 248.16 661.17 246.36 663.54 244.57 663.44 241.12 663.34 237.66 663.14 234.93 662.94 232.2 660.59 229.51 658.25 226.82 646.37 219.03 634.49 211.23 627.24 209.96 619.98 208.69 612.91 207.6 605.84 206.52 600.41 206.69 594.99 206.87 592 208.16 589.02 209.44 586.87 210.71 584.73 211.97 583.15 214.89 581.57 217.8 581.06 220.89 580.55 223.98 580.66 227.2 580.76 230.41 581.45 234 582.14 237.59 583.63 241.11 585.12 244.63 588.58 247.42 592.04 250.21 595.27 249.7 598.5 249.2 598.98 246.47 599.45 243.74 599.36 239.84 599.26 235.94 598.62 231.75 597.98 227.56 597.04 223.33 596.11 219.1 592.96 216.34 589.81 213.58 585.38 211.88 580.95 210.17 576.1 209.46 571.26 208.74 562.25 207.74 553.24 206.73 547.47 207.32 541.7 207.92 537.51 208.14 533.33 208.36 524.46 209.67 515.59 210.97 511.32 212.33 507.06 213.68 503.76 215.43 500.47 217.18 498.79 219.18 497.12 221.17 493.29 226.79 489.46 232.4 488.81 235.03 488.16 237.65 486.04 241.57 483.92 245.49 487.37 245.48 490.83 245.47 493.35 243.35 495.88 241.22 496.26 238.9 496.63 236.58 495.97 232.56 495.31 228.55 493.93 226.71 492.54 224.87 490.11 222.64 487.68 220.42 484.4 219.08 481.12 217.75 478.36 216.52 475.61 215.28 469.43 213.99 463.26 212.71 454.2 211.63 445.13 210.55 439.91 210.63 434.68 210.72 431.68 211.41 428.69 212.11 424.72 212.78 420.76 213.44 416.58 215.99 412.4 218.53 409.65 222.16 406.89 225.79 406.36 228.78 405.83 231.77 405.83 234.43 405.84 237.1 405.86 239.78 405.88 242.46 406.83 246.96 407.79 251.46 411.13 252.57 414.48 253.69 419.46 253.83 424.45 253.97 425.33 251.73 426.22 249.48 426.85 244.78 427.49 240.07 427.43 235.69 427.38 231.31 424.78 229.24 422.17 227.18 417.95 225.9 413.73 224.61 407.96 223.4 402.19 222.19 393.38 221.45 384.56 220.71 375.39 219.63 366.22 218.55 357.06 218.68 347.91 218.8 342.14 219.55 336.37 220.3 331.18 221.54 325.98 222.78 321.16 224.67 316.33 226.57 314.16 229.87 311.98 233.18 310.9 237.62 309.83 242.06 309.86 244.4 309.88 246.74 310.56 251.69 311.23 256.64 312.72 258.4 314.21 260.16 316.41 259.31 318.61 258.47 318.78 255.53 318.94 252.6 317.14 248.55 315.35 244.5 313.97 242.36 312.59 240.22 310.46 237.09 308.32 233.97 305.06 232.64 301.8 231.32 292.43 230.13 283.06 228.94 273.05 228.38 263.03 227.83 252.54 227.83 242.05 227.84 235.66 227.86 229.27 227.88 221.09 227.97 212.91 228.07 209.3 228.72 205.7 229.36 202.05 230.99 198.4 232.61 193.41 235.15 188.43 237.69 185.15 239.45 181.88 241.2 179.57 244.37 177.26 247.53 176.06 251.19 174.86 254.85 177.02 256.84 179.18 258.82 181.95 258.81 184.73 258.8 187.42 258.24 190.11 257.68 191.5 255.8 192.88 253.92 193.47 251.28 194.06 248.64 191.36 245.67 188.67 242.69 185.33 240.78 181.99 238.86 178.21 237.12 174.42 235.38 170.26 234.42 166.09 233.45 158.53 231.19 150.97 228.94 144.19 228.39 137.41 227.85 132.71 227.9 128.01 227.96 122.97 228.25 117.93 228.54 108.71 231.36 99.49 234.18 95.65 238.22 91.81 242.26 90.68 245.28 89.55 248.3 88.67 250.99 87.79 253.69 87.72 253.9 87.65 254.1 87.53 254.29 87.42 254.48 87.26 254.63 87.1 254.78 86.91 254.89 86.72 255 86.51 255.07 86.3 255.13 86.08 255.14 85.86 255.15 85.65 255.1 85.43 255.06 85.23 254.97 85.03 254.87 84.86 254.74 84.69 254.6 84.56 254.42 84.43 254.25 84.34 254.05 84.25 253.84 84.22 253.63 84.18 253.41 84.2 253.19 84.21 252.97 84.21 252.97 Z"></path><path d="M 738.83 344.92 Q 738.83 344.92 742.61 343.48 746.4 342.05 744.41 338.57 742.42 335.1 733.28 330.16 724.15 325.23 721.23 324.03 718.31 322.83 712.58 322.15 706.84 321.46 702.21 321.89 697.58 322.31 695.07 323.22 692.55 324.13 692.44 329.18 692.34 334.22 695.68 346.83 699.03 359.44 699.86 361.79 700.69 364.14 701.49 361.78 702.29 359.43 701.16 355.05 700.03 350.68 696.76 346.41 693.49 342.15 687.71 338.89 681.94 335.63 669.58 332.38 657.22 329.13 644.83 328.59 632.44 328.06 629.07 328.98 625.69 329.91 622.25 333.6 618.81 337.3 617.76 341.75 616.7 346.2 616.62 349.7 616.55 353.2 616.53 353.84 616.51 354.48 616.46 354.78 616.42 355.08 616.3 355.36 616.19 355.64 616.01 355.88 615.83 356.12 615.6 356.31 615.37 356.51 615.09 356.64 614.82 356.77 614.53 356.83 614.23 356.9 613.93 356.89 613.63 356.88 613.34 356.8 613.05 356.72 612.79 356.57 612.53 356.42 612.31 356.21 612.09 356.01 611.92 355.76 611.76 355.5 611.66 355.22 611.56 354.93 611.54 354.63 611.51 354.33 612.15 350.29 612.79 346.25 612.82 343.15 612.84 340.05 611.53 336.87 610.21 333.7 600.51 330.74 590.81 327.78 584.55 328.36 578.29 328.94 573.01 330.63 567.74 332.32 563.82 335.2 559.9 338.08 557.79 341.1 555.67 344.12 554.24 346.76 552.81 349.39 551.88 351.21 550.95 353.03 550.78 353.28 550.61 353.53 550.39 353.73 550.17 353.93 549.9 354.08 549.64 354.22 549.34 354.29 549.05 354.37 548.75 354.37 548.45 354.37 548.16 354.31 547.86 354.24 547.59 354.1 547.33 353.96 547.1 353.76 546.87 353.57 546.7 353.32 546.52 353.07 546.41 352.79 546.3 352.51 546.27 352.21 546.23 351.91 546.26 351.61 546.29 351.32 546.4 351.03 546.5 350.75 543.13 344.05 539.76 337.35 536.08 332.9 532.41 328.46 526.55 325.34 520.68 322.23 510.02 320.13 499.36 318.03 487.29 318.78 475.22 319.53 470.02 320.72 464.81 321.92 459.28 325.29 453.75 328.65 450.32 333.37 446.88 338.09 445.29 342.01 443.69 345.92 443.53 343.55 443.37 341.19 443.41 338.52 443.45 335.85 442.43 331.84 441.4 327.83 438.83 324.86 436.25 321.89 426.34 319.97 416.43 318.04 411.51 317.68 406.58 317.32 402.68 317.78 398.77 318.25 390.23 323.7 381.69 329.14 378.68 333.77 375.66 338.39 374.18 340.73 372.7 343.08 369.58 343.27 366.46 343.47 365.23 341.25 364.01 339.04 360.13 333.42 356.25 327.8 354.54 325.81 352.84 323.82 347.73 319.76 342.63 315.7 330.41 310.73 318.19 305.75 306.37 303.85 294.55 301.95 286.59 301.62 278.63 301.29 271.64 303.92 264.64 306.54 262.72 308.29 260.8 310.03 259.6 317.54 258.4 325.05 258.93 327.8 259.45 330.55 258.69 325.93 257.93 321.31 256.96 316.08 255.98 310.85 254.36 308.69 252.73 306.54 247.75 303.07 242.76 299.6 237.28 298.02 231.8 296.45 219.67 298.4 207.55 300.36 204.59 301.1 201.62 301.84 196.08 309.91 190.53 317.99 187.97 324.16 185.41 330.33 184.95 332.53 184.49 334.74 184.34 335 184.19 335.26 183.99 335.48 183.78 335.7 183.52 335.86 183.27 336.02 182.99 336.12 182.7 336.22 182.4 336.24 182.1 336.27 181.8 336.22 181.5 336.17 181.23 336.06 180.95 335.94 180.71 335.76 180.47 335.58 180.27 335.35 180.08 335.12 179.95 334.84 179.82 334.57 179.76 334.28 179.7 333.98 179.71 333.68 179.72 333.38 179.8 333.09 179.88 332.8 179.81 328.79 179.74 324.79 178.09 320.32 176.44 315.86 173 311.65 169.56 307.43 160.95 301.95 152.33 296.47 147.4 294.9 142.46 293.32 133.74 303.38 125.02 313.44 123.1 318.15 121.19 322.85 120.92 328.85 120.64 334.85 120.57 337.39 120.5 339.92 120.5 339.98 120.5 340.04 120.46 340.34 120.41 340.64 120.3 340.92 120.18 341.2 120 341.44 119.82 341.68 119.59 341.88 119.36 342.07 119.09 342.2 118.82 342.34 118.53 342.4 118.23 342.46 117.93 342.45 117.63 342.45 117.34 342.37 117.05 342.29 116.79 342.14 116.52 341.99 116.3 341.78 116.08 341.58 115.92 341.33 115.76 341.07 115.66 340.79 115.56 340.5 115.53 340.2 115.5 339.9 116.09 337.54 116.69 335.18 115.14 330.96 113.6 326.75 110.69 321.76 107.78 316.76 102.55 312.31 97.32 307.86 92.9 306.16 88.48 304.45 85.47 304.73 82.46 305.02 79.63 307.07 76.8 309.13 75.45 313.94 74.1 318.76 73.31 324.07 72.52 329.38 72.4 329.76 72.27 330.15 72.03 330.47 71.79 330.8 71.46 331.03 71.13 331.26 70.74 331.38 70.35 331.49 69.95 331.48 69.55 331.46 69.17 331.32 68.79 331.17 68.48 330.92 68.17 330.66 67.95 330.32 67.74 329.97 67.65 329.58 67.55 329.18 67.59 328.78 67.63 328.38 67.79 328.01 67.96 327.64 68.23 327.34 68.5 327.04 68.86 326.85 69.21 326.65 69.61 326.58 70.01 326.51 70.41 326.57 70.81 326.63 71.17 326.81 71.53 327 71.81 327.29 72.1 327.58 72.27 327.94 72.45 328.31 72.5 328.71 72.55 329.11 72.46 329.51 72.38 329.9 72.18 330.25 71.98 330.6 71.67 330.87 71.37 331.13 70.99 331.29 70.62 331.44 70.22 331.47 69.81 331.5 69.42 331.4 69.03 331.3 68.69 331.07 68.36 330.85 68.11 330.53 67.86 330.22 67.72 329.83 67.59 329.45 67.58 329.05 67.57 328.64 67.57 328.64 67.57 328.64 68.38 323.25 69.18 317.86 70.13 313.27 71.09 308.67 72.52 306.85 73.96 305.03 77.89 302.58 81.81 300.14 85.97 299.96 90.12 299.78 95.32 301.91 100.52 304.04 106.28 309.12 112.05 314.19 115.2 319.69 118.34 325.18 119.42 332.61 120.5 340.04 120.46 340.34 120.41 340.64 120.3 340.92 120.18 341.2 120 341.44 119.82 341.68 119.59 341.88 119.36 342.07 119.09 342.2 118.82 342.34 118.53 342.4 118.23 342.46 117.93 342.45 117.63 342.45 117.34 342.37 117.05 342.29 116.79 342.14 116.52 341.99 116.3 341.78 116.08 341.58 115.92 341.33 115.76 341.07 115.66 340.79 115.56 340.5 115.53 340.2 115.5 339.9 115.5 339.84 115.51 339.78 115.58 337.17 115.65 334.57 116.11 327.79 116.56 321 118.91 315.58 121.27 310.16 131.17 299.71 141.07 289.27 148.02 290.75 154.97 292.23 164.18 298.24 173.39 304.24 177.17 308.97 180.94 313.7 182.82 318.94 184.7 324.18 184.6 329.46 184.49 334.74 184.34 335 184.19 335.26 183.99 335.48 183.78 335.7 183.53 335.86 183.27 336.02 182.99 336.12 182.7 336.22 182.4 336.24 182.1 336.27 181.8 336.22 181.5 336.17 181.23 336.06 180.95 335.94 180.71 335.76 180.47 335.58 180.27 335.35 180.08 335.12 179.95 334.84 179.82 334.57 179.76 334.28 179.7 333.98 179.71 333.68 179.72 333.38 179.8 333.09 179.88 332.8 180.34 330.61 180.8 328.41 183.63 321.75 186.46 315.09 193.08 306.27 199.7 297.44 203.25 296.43 206.79 295.41 219.9 293.53 233.02 291.64 239.3 293.56 245.58 295.49 251.17 299.55 256.77 303.61 258.8 306.7 260.83 309.8 261.85 315.91 262.87 322.01 262.1 326.46 261.32 330.9 258.59 332.04 255.85 333.17 254.67 328.74 253.49 324.31 255.32 315.6 257.14 306.89 259.98 304.4 262.82 301.91 270.76 299.11 278.7 296.32 287.03 296.67 295.35 297.01 307.71 299.07 320.06 301.12 332.88 306.44 345.7 311.77 351.17 316.16 356.63 320.56 358.5 322.77 360.37 324.97 364.42 332.69 368.47 340.4 369.86 338.21 371.25 336.02 373.39 332.16 375.52 328.3 377.28 326.61 379.03 324.92 388.51 319.13 398 313.35 402.47 312.84 406.94 312.33 412.21 312.74 417.48 313.15 428.49 315.74 439.5 318.33 442.83 322.38 446.15 326.43 447.3 331.22 448.44 336.01 448.23 339.49 448.02 342.98 446.97 345.26 445.92 347.54 442.74 348.41 439.56 349.29 439.32 346.64 439.08 344 440.97 339.56 442.87 335.13 446.97 329.79 451.08 324.46 457.36 320.76 463.63 317.07 469.28 315.8 474.92 314.54 487.61 313.83 500.31 313.13 511.65 315.46 522.99 317.8 529.36 321.26 535.73 324.72 540.02 330 544.31 335.28 547.63 344.15 550.95 353.03 550.78 353.28 550.61 353.53 550.39 353.73 550.17 353.93 549.9 354.08 549.64 354.22 549.34 354.29 549.05 354.37 548.75 354.37 548.45 354.37 548.16 354.31 547.86 354.24 547.59 354.1 547.33 353.96 547.1 353.76 546.87 353.57 546.7 353.32 546.52 353.07 546.41 352.79 546.3 352.51 546.27 352.21 546.23 351.91 546.26 351.61 546.29 351.32 546.4 351.03 546.5 350.75 547.46 348.87 548.43 347 550.02 344.09 551.62 341.19 554.28 337.63 556.93 334.07 561.55 330.83 566.17 327.59 572.02 325.78 577.87 323.96 585.06 323.49 592.24 323.02 603.02 326.91 613.8 330.8 615.8 335.35 617.81 339.9 617.8 343.17 617.79 346.44 617.15 350.46 616.51 354.48 616.46 354.78 616.42 355.08 616.3 355.36 616.19 355.64 616.01 355.88 615.83 356.12 615.6 356.31 615.37 356.51 615.09 356.64 614.82 356.77 614.53 356.83 614.23 356.9 613.93 356.89 613.63 356.88 613.34 356.8 613.05 356.72 612.79 356.57 612.53 356.42 612.31 356.22 612.09 356.01 611.92 355.76 611.76 355.5 611.66 355.22 611.56 354.93 611.54 354.63 611.51 354.33 611.53 353.69 611.55 353.05 611.7 349.02 611.85 344.99 612.53 342.34 613.2 339.68 614.15 336.86 615.1 334.05 619.59 329.66 624.09 325.26 628.34 324.17 632.6 323.07 645.54 323.68 658.49 324.3 671.45 327.79 684.42 331.29 690.9 335.18 697.38 339.07 701.11 344.27 704.84 349.47 705.61 355.84 706.37 362.21 704.86 364.97 703.35 367.73 700.2 367.35 697.04 366.97 695.62 363.85 694.2 360.73 690.78 347.72 687.36 334.72 687.08 330.44 686.8 326.16 688.37 323.2 689.94 320.24 693.52 318.79 697.1 317.34 702.27 316.92 707.45 316.5 713.81 317.35 720.17 318.19 723.29 319.49 726.42 320.78 734.64 324.99 742.86 329.21 744.68 330.72 746.51 332.23 749.33 338.32 752.15 344.41 749.96 345.63 747.77 346.86 743.8 347.64 739.83 348.42 739.61 348.46 739.4 348.49 739.18 348.47 738.96 348.45 738.75 348.38 738.54 348.31 738.36 348.2 738.17 348.08 738.02 347.92 737.87 347.76 737.76 347.57 737.65 347.38 737.59 347.17 737.53 346.96 737.52 346.74 737.51 346.52 737.56 346.3 737.6 346.09 737.7 345.89 737.79 345.69 737.93 345.52 738.07 345.35 738.25 345.22 738.42 345.09 738.63 345 738.83 344.92 738.83 344.92 Z"></path><path d="M 738.83 344.92 Q 738.83 344.92 742.61 343.48 746.4 342.05 744.41 338.57 742.42 335.1 733.28 330.16 724.15 325.23 721.23 324.03 718.31 322.83 712.58 322.15 706.84 321.46 702.21 321.89 697.58 322.31 695.07 323.22 692.55 324.13 692.44 329.18 692.34 334.22 695.68 346.83 699.03 359.44 699.86 361.79 700.69 364.14 701.49 361.78 702.29 359.43 701.16 355.05 700.03 350.68 696.76 346.41 693.49 342.15 687.71 338.89 681.94 335.63 669.58 332.38 657.22 329.13 644.83 328.59 632.44 328.06 629.07 328.98 625.69 329.91 622.25 333.6 618.81 337.3 617.76 341.75 616.7 346.2 616.62 349.7 616.55 353.2 616.53 353.84 616.51 354.48 616.46 354.78 616.42 355.08 616.3 355.36 616.19 355.64 616.01 355.88 615.83 356.12 615.6 356.31 615.37 356.51 615.09 356.64 614.82 356.77 614.53 356.83 614.23 356.9 613.93 356.89 613.63 356.88 613.34 356.8 613.05 356.72 612.79 356.57 612.53 356.42 612.31 356.21 612.09 356.01 611.92 355.76 611.76 355.5 611.66 355.22 611.56 354.93 611.54 354.63 611.51 354.33 612.15 350.29 612.79 346.25 612.82 343.15 612.84 340.05 611.53 336.87 610.21 333.7 600.51 330.74 590.81 327.78 584.55 328.36 578.29 328.94 573.01 330.63 567.74 332.32 563.82 335.2 559.9 338.08 557.79 341.1 555.67 344.12 554.24 346.76 552.81 349.39 551.88 351.21 550.95 353.03 550.78 353.28 550.61 353.53 550.39 353.73 550.17 353.93 549.9 354.08 549.64 354.22 549.34 354.29 549.05 354.37 548.75 354.37 548.45 354.37 548.16 354.31 547.86 354.24 547.59 354.1 547.33 353.96 547.1 353.76 546.87 353.57 546.7 353.32 546.52 353.07 546.41 352.79 546.3 352.51 546.27 352.21 546.23 351.91 546.26 351.61 546.29 351.32 546.4 351.03 546.5 350.75 543.13 344.05 539.76 337.35 536.08 332.9 532.41 328.46 526.55 325.34 520.68 322.23 510.02 320.13 499.36 318.03 487.29 318.78 475.22 319.53 470.02 320.72 464.81 321.92 459.28 325.29 453.75 328.65 450.32 333.37 446.88 338.09 445.29 342.01 443.69 345.92 443.53 343.55 443.37 341.19 443.41 338.52 443.45 335.85 442.43 331.84 441.4 327.83 438.83 324.86 436.25 321.89 426.34 319.97 416.43 318.04 411.51 317.68 406.58 317.32 402.68 317.78 398.77 318.25 390.23 323.7 381.69 329.14 378.68 333.77 375.66 338.39 374.18 340.73 372.7 343.08 369.58 343.27 366.46 343.47 365.23 341.25 364.01 339.04 360.13 333.42 356.25 327.8 354.54 325.81 352.84 323.82 347.73 319.76 342.63 315.7 330.41 310.73 318.19 305.75 306.37 303.85 294.55 301.95 286.59 301.62 278.63 301.29 271.64 303.92 264.64 306.54 262.72 308.29 260.8 310.03 259.6 317.54 258.4 325.05 258.93 327.8 259.45 330.55 258.69 325.93 257.93 321.31 256.96 316.08 255.98 310.85 254.36 308.69 252.73 306.54 247.75 303.07 242.76 299.6 237.28 298.02 231.8 296.45 219.67 298.4 207.55 300.36 204.59 301.1 201.62 301.84 196.08 309.91 190.53 317.99 187.97 324.16 185.41 330.33 184.95 332.53 184.49 334.74 184.34 335 184.19 335.26 183.99 335.48 183.78 335.7 183.52 335.86 183.27 336.02 182.99 336.12 182.7 336.22 182.4 336.24 182.1 336.27 181.8 336.22 181.5 336.17 181.23 336.06 180.95 335.94 180.71 335.76 180.47 335.58 180.27 335.35 180.08 335.12 179.95 334.84 179.82 334.57 179.76 334.28 179.7 333.98 179.71 333.68 179.72 333.38 179.8 333.09 179.88 332.8 179.81 328.79 179.74 324.79 178.09 320.32 176.44 315.86 173 311.65 169.56 307.43 160.95 301.95 152.33 296.47 147.4 294.9 142.46 293.32 133.74 303.38 125.02 313.44 123.1 318.15 121.19 322.85 120.92 328.85 120.64 334.85 120.57 337.39 120.5 339.92 120.5 339.98 120.5 340.04 120.46 340.34 120.41 340.64 120.3 340.92 120.18 341.2 120 341.44 119.82 341.68 119.59 341.88 119.36 342.07 119.09 342.2 118.82 342.34 118.53 342.4 118.23 342.46 117.93 342.45 117.63 342.45 117.34 342.37 117.05 342.29 116.79 342.14 116.52 341.99 116.3 341.78 116.08 341.58 115.92 341.33 115.76 341.07 115.66 340.79 115.56 340.5 115.53 340.2 115.5 339.9 116.09 337.54 116.69 335.18 115.14 330.96 113.6 326.75 110.69 321.76 107.78 316.76 102.55 312.31 97.32 307.86 92.9 306.16 88.48 304.45 85.47 304.73 82.46 305.02 79.63 307.07 76.8 309.13 75.45 313.94 74.1 318.76 73.31 324.07 72.52 329.38 72.4 329.76 72.27 330.15 72.03 330.47 71.79 330.8 71.46 331.03 71.13 331.26 70.74 331.38 70.35 331.49 69.95 331.48 69.55 331.46 69.17 331.32 68.79 331.17 68.48 330.92 68.17 330.66 67.95 330.32 67.74 329.97 67.65 329.58 67.55 329.18 67.59 328.78 67.63 328.38 67.79 328.01 67.96 327.64 68.23 327.34 68.5 327.04 68.86 326.85 69.21 326.65 69.61 326.58 70.01 326.51 70.41 326.57 70.81 326.63 71.17 326.81 71.53 327 71.81 327.29 72.1 327.58 72.27 327.94 72.45 328.31 72.5 328.71 72.55 329.11 72.46 329.51 72.38 329.9 72.18 330.25 71.98 330.6 71.67 330.87 71.37 331.13 70.99 331.29 70.62 331.44 70.22 331.47 69.81 331.5 69.42 331.4 69.03 331.3 68.69 331.07 68.36 330.85 68.11 330.53 67.86 330.22 67.72 329.83 67.59 329.45 67.58 329.05 67.57 328.64 67.57 328.64 67.57 328.64 68.38 323.25 69.18 317.86 70.13 313.27 71.09 308.67 72.52 306.85 73.96 305.03 77.89 302.58 81.81 300.14 85.97 299.96 90.12 299.78 95.32 301.91 100.52 304.04 106.28 309.12 112.05 314.19 115.2 319.69 118.34 325.18 119.42 332.61 120.5 340.04 120.46 340.34 120.41 340.64 120.3 340.92 120.18 341.2 120 341.44 119.82 341.68 119.59 341.88 119.36 342.07 119.09 342.2 118.82 342.34 118.53 342.4 118.23 342.46 117.93 342.45 117.63 342.45 117.34 342.37 117.05 342.29 116.79 342.14 116.52 341.99 116.3 341.78 116.08 341.58 115.92 341.33 115.76 341.07 115.66 340.79 115.56 340.5 115.53 340.2 115.5 339.9 115.5 339.84 115.51 339.78 115.58 337.17 115.65 334.57 116.11 327.79 116.56 321 118.91 315.58 121.27 310.16 131.17 299.71 141.07 289.27 148.02 290.75 154.97 292.23 164.18 298.24 173.39 304.24 177.17 308.97 180.94 313.7 182.82 318.94 184.7 324.18 184.6 329.46 184.49 334.74 184.34 335 184.19 335.26 183.99 335.48 183.78 335.7 183.53 335.86 183.27 336.02 182.99 336.12 182.7 336.22 182.4 336.24 182.1 336.27 181.8 336.22 181.5 336.17 181.23 336.06 180.95 335.94 180.71 335.76 180.47 335.58 180.27 335.35 180.08 335.12 179.95 334.84 179.82 334.57 179.76 334.28 179.7 333.98 179.71 333.68 179.72 333.38 179.8 333.09 179.88 332.8 180.34 330.61 180.8 328.41 183.63 321.75 186.46 315.09 193.08 306.27 199.7 297.44 203.25 296.43 206.79 295.41 219.9 293.53 233.02 291.64 239.3 293.56 245.58 295.49 251.17 299.55 256.77 303.61 258.8 306.7 260.83 309.8 261.85 315.91 262.87 322.01 262.1 326.46 261.32 330.9 258.59 332.04 255.85 333.17 254.67 328.74 253.49 324.31 255.32 315.6 257.14 306.89 259.98 304.4 262.82 301.91 270.76 299.11 278.7 296.32 287.03 296.67 295.35 297.01 307.71 299.07 320.06 301.12 332.88 306.44 345.7 311.77 351.17 316.16 356.63 320.56 358.5 322.77 360.37 324.97 364.42 332.69 368.47 340.4 369.86 338.21 371.25 336.02 373.39 332.16 375.52 328.3 377.28 326.61 379.03 324.92 388.51 319.13 398 313.35 402.47 312.84 406.94 312.33 412.21 312.74 417.48 313.15 428.49 315.74 439.5 318.33 442.83 322.38 446.15 326.43 447.3 331.22 448.44 336.01 448.23 339.49 448.02 342.98 446.97 345.26 445.92 347.54 442.74 348.41 439.56 349.29 439.32 346.64 439.08 344 440.97 339.56 442.87 335.13 446.97 329.79 451.08 324.46 457.36 320.76 463.63 317.07 469.28 315.8 474.92 314.54 487.61 313.83 500.31 313.13 511.65 315.46 522.99 317.8 529.36 321.26 535.73 324.72 540.02 330 544.31 335.28 547.63 344.15 550.95 353.03 550.78 353.28 550.61 353.53 550.39 353.73 550.17 353.93 549.9 354.08 549.64 354.22 549.34 354.29 549.05 354.37 548.75 354.37 548.45 354.37 548.16 354.31 547.86 354.24 547.59 354.1 547.33 353.96 547.1 353.76 546.87 353.57 546.7 353.32 546.52 353.07 546.41 352.79 546.3 352.51 546.27 352.21 546.23 351.91 546.26 351.61 546.29 351.32 546.4 351.03 546.5 350.75 547.46 348.87 548.43 347 550.02 344.09 551.62 341.19 554.28 337.63 556.93 334.07 561.55 330.83 566.17 327.59 572.02 325.78 577.87 323.96 585.06 323.49 592.24 323.02 603.02 326.91 613.8 330.8 615.8 335.35 617.81 339.9 617.8 343.17 617.79 346.44 617.15 350.46 616.51 354.48 616.46 354.78 616.42 355.08 616.3 355.36 616.19 355.64 616.01 355.88 615.83 356.12 615.6 356.31 615.37 356.51 615.09 356.64 614.82 356.77 614.53 356.83 614.23 356.9 613.93 356.89 613.63 356.88 613.34 356.8 613.05 356.72 612.79 356.57 612.53 356.42 612.31 356.22 612.09 356.01 611.92 355.76 611.76 355.5 611.66 355.22 611.56 354.93 611.54 354.63 611.51 354.33 611.53 353.69 611.55 353.05 611.7 349.02 611.85 344.99 612.53 342.34 613.2 339.68 614.15 336.86 615.1 334.05 619.59 329.66 624.09 325.26 628.34 324.17 632.6 323.07 645.54 323.68 658.49 324.3 671.45 327.79 684.42 331.29 690.9 335.18 697.38 339.07 701.11 344.27 704.84 349.47 705.61 355.84 706.37 362.21 704.86 364.97 703.35 367.73 700.2 367.35 697.04 366.97 695.62 363.85 694.2 360.73 690.78 347.72 687.36 334.72 687.08 330.44 686.8 326.16 688.37 323.2 689.94 320.24 693.52 318.79 697.1 317.34 702.27 316.92 707.45 316.5 713.81 317.35 720.17 318.19 723.29 319.49 726.42 320.78 734.64 324.99 742.86 329.21 744.68 330.72 746.51 332.23 749.33 338.32 752.15 344.41 749.96 345.63 747.77 346.86 743.8 347.64 739.83 348.42 739.61 348.46 739.4 348.49 739.18 348.47 738.96 348.45 738.75 348.38 738.54 348.31 738.36 348.2 738.17 348.08 738.02 347.92 737.87 347.76 737.76 347.57 737.65 347.38 737.59 347.17 737.53 346.96 737.52 346.74 737.51 346.52 737.56 346.3 737.6 346.09 737.7 345.89 737.79 345.69 737.93 345.52 738.07 345.35 738.25 345.22 738.42 345.09 738.63 345 738.83 344.92 738.83 344.92 Z"></path><path d="M 33.51 445.33 Q 33.51 445.33 33.17 443.67 32.83 442.01 32.17 439.16 31.51 436.3 30.84 433.64 30.18 430.97 31.35 428.96 32.53 426.94 32.87 424.57 33.21 422.19 33.02 419.88 32.83 417.56 32.83 414.9 32.83 412.23 32.83 409.57 32.83 406.9 32.17 404.23 31.5 401.56 33.22 399.28 34.94 396.99 37.69 396.58 40.44 396.17 43.09 396.17 45.73 396.17 48.4 396.17 51.06 396.17 53.75 396.17 56.44 396.17 58.97 396.17 61.51 396.17 64.28 396.17 67.06 396.17 70.3 396.17 73.54 396.17 76.32 396.17 79.1 396.17 81.12 397.41 83.15 398.65 83.79 401.67 84.43 404.69 85.13 407.53 85.82 410.37 85.83 413.07 85.83 415.77 85.83 418.43 85.83 421.1 85.83 423.77 85.83 426.44 85.83 429.1 85.83 431.77 85.83 434.43 85.83 437.1 85.83 439.73 85.83 442.37 84.65 445.04 83.47 447.72 81.21 446.96 78.95 446.2 76.51 445.7 74.07 445.19 71.48 445.18 68.9 445.17 65.76 445.8 62.62 446.44 59.8 447.13 56.97 447.82 54.15 446.98 51.34 446.15 49.42 443.85 47.5 441.56 48.35 439.44 49.2 437.32 49.02 434.77 48.83 432.23 48.83 429.02 48.83 425.82 48.83 422.7 48.83 419.59 48.83 417.24 48.83 414.9 50.08 412.87 51.33 410.83 54.52 412.01 57.72 413.18 60.4 412.01 63.09 410.83 65.57 410.9 68.05 410.97 68.21 410.54 68.37 410.1 68.62 409.94 68.87 409.77 69.16 409.67 69.44 409.57 69.74 409.54 70.04 409.51 70.34 409.55 70.64 409.59 70.92 409.7 71.2 409.82 71.44 409.99 71.68 410.17 71.88 410.4 72.08 410.63 72.21 410.89 72.35 411.16 72.41 411.46 72.48 411.75 72.47 412.05 72.47 412.35 72.39 412.65 72.31 412.94 72.17 413.2 72.02 413.47 71.82 413.69 71.61 413.91 72.67 415.92 73.72 417.93 73.78 420.18 73.83 422.44 73.83 425.77 73.83 429.1 73.76 429.5 73.7 429.9 73.51 430.26 73.32 430.62 73.03 430.89 72.73 431.17 72.37 431.34 72 431.51 71.6 431.56 71.19 431.6 70.8 431.51 70.4 431.43 70.06 431.22 69.71 431.01 69.45 430.7 69.19 430.39 69.04 430.02 68.89 429.64 68.87 429.24 68.84 428.83 68.95 428.44 69.06 428.05 69.29 427.72 69.52 427.38 69.84 427.14 70.16 426.89 70.54 426.77 70.93 426.64 71.33 426.64 71.73 426.64 72.12 426.77 72.5 426.9 72.82 427.14 73.15 427.38 73.37 427.72 73.6 428.05 73.71 428.44 73.82 428.83 73.79 429.24 73.77 429.64 73.62 430.02 73.47 430.39 73.21 430.7 72.95 431.01 72.6 431.22 72.25 431.43 71.86 431.51 71.46 431.6 71.06 431.56 70.66 431.51 70.29 431.34 69.93 431.17 69.63 430.89 69.34 430.62 69.15 430.26 68.96 429.9 68.9 429.5 68.83 429.1 68.83 429.1 68.83 429.1 68.83 426.44 68.83 423.77 68.75 421.04 68.67 418.31 68.52 414.21 68.37 410.1 68.62 409.94 68.87 409.77 69.16 409.67 69.44 409.57 69.74 409.54 70.04 409.51 70.34 409.55 70.64 409.59 70.92 409.7 71.2 409.81 71.44 409.99 71.68 410.17 71.88 410.4 72.08 410.62 72.21 410.89 72.35 411.16 72.41 411.46 72.48 411.75 72.47 412.05 72.47 412.35 72.39 412.65 72.31 412.94 72.17 413.2 72.02 413.46 71.82 413.69 71.61 413.91 70.22 414.8 68.83 415.69 66.19 415.51 63.54 415.32 60.72 416.25 57.89 417.17 55.86 416.04 53.83 414.9 53.83 417.24 53.83 419.59 53.83 422.7 53.83 425.82 53.83 429.02 53.83 432.23 53.83 434.83 53.83 437.44 52.73 439.47 51.63 441.51 53.61 443.09 55.58 444.67 57.57 443.09 59.56 441.5 62.23 440.83 64.9 440.17 67.47 440.17 70.04 440.17 72.33 440.2 74.63 440.23 77.73 441.3 80.83 442.37 80.83 439.73 80.83 437.1 80.83 434.43 80.83 431.77 80.83 429.1 80.83 426.44 80.83 423.77 80.83 421.1 80.83 418.43 80.83 415.77 81.08 413.32 81.34 410.87 80.56 408.29 79.79 405.71 79.44 403.44 79.1 401.17 76.32 401.17 73.54 401.17 70.3 401.17 67.06 401.17 64.28 401.17 61.51 401.17 58.97 401.17 56.44 401.17 53.75 401.17 51.06 401.17 48.4 401.17 45.73 401.17 43.09 401.17 40.44 401.17 39.03 403 37.62 404.83 37.72 407.2 37.83 409.57 37.83 412.23 37.83 414.9 37.83 417.58 37.83 420.27 37.16 422.91 36.5 425.56 35.65 428.1 34.8 430.64 35.4 433.22 36 435.8 36.92 438.91 37.83 442.01 37.49 443.67 37.15 445.33 37.13 445.55 37.1 445.77 37.02 445.97 36.94 446.18 36.82 446.36 36.69 446.54 36.53 446.68 36.37 446.83 36.17 446.93 35.98 447.03 35.76 447.09 35.55 447.14 35.33 447.14 35.11 447.14 34.9 447.09 34.68 447.03 34.49 446.93 34.29 446.83 34.13 446.68 33.97 446.54 33.84 446.36 33.72 446.18 33.64 445.97 33.56 445.77 33.53 445.55 33.51 445.33 33.51 445.33 Z"></path><path d="M 33.51 445.33 Q 33.51 445.33 33.17 443.67 32.83 442.01 32.17 439.16 31.51 436.3 30.84 433.64 30.18 430.97 31.35 428.96 32.53 426.94 32.87 424.57 33.21 422.19 33.02 419.88 32.83 417.56 32.83 414.9 32.83 412.23 32.83 409.57 32.83 406.9 32.17 404.23 31.5 401.56 33.22 399.28 34.94 396.99 37.69 396.58 40.44 396.17 43.09 396.17 45.73 396.17 48.4 396.17 51.06 396.17 53.75 396.17 56.44 396.17 58.97 396.17 61.51 396.17 64.28 396.17 67.06 396.17 70.3 396.17 73.54 396.17 76.32 396.17 79.1 396.17 81.12 397.41 83.15 398.65 83.79 401.67 84.43 404.69 85.13 407.53 85.82 410.37 85.83 413.07 85.83 415.77 85.83 418.43 85.83 421.1 85.83 423.77 85.83 426.44 85.83 429.1 85.83 431.77 85.83 434.43 85.83 437.1 85.83 439.73 85.83 442.37 84.65 445.04 83.47 447.72 81.21 446.96 78.95 446.2 76.51 445.7 74.07 445.19 71.48 445.18 68.9 445.17 65.76 445.8 62.62 446.44 59.8 447.13 56.97 447.82 54.15 446.98 51.34 446.15 49.42 443.85 47.5 441.56 48.35 439.44 49.2 437.32 49.02 434.77 48.83 432.23 48.83 429.02 48.83 425.82 48.83 422.7 48.83 419.59 48.83 417.24 48.83 414.9 50.08 412.87 51.33 410.83 54.52 412.01 57.72 413.18 60.4 412.01 63.09 410.83 65.57 410.9 68.05 410.97 68.21 410.54 68.37 410.1 68.62 409.94 68.87 409.77 69.16 409.67 69.44 409.57 69.74 409.54 70.04 409.51 70.34 409.55 70.64 409.59 70.92 409.7 71.2 409.82 71.44 409.99 71.68 410.17 71.88 410.4 72.08 410.63 72.21 410.89 72.35 411.16 72.41 411.46 72.48 411.75 72.47 412.05 72.47 412.35 72.39 412.65 72.31 412.94 72.17 413.2 72.02 413.47 71.82 413.69 71.61 413.91 72.67 415.92 73.72 417.93 73.78 420.18 73.83 422.44 73.83 425.77 73.83 429.1 73.76 429.5 73.7 429.9 73.51 430.26 73.32 430.62 73.03 430.89 72.73 431.17 72.37 431.34 72 431.51 71.6 431.56 71.19 431.6 70.8 431.51 70.4 431.43 70.06 431.22 69.71 431.01 69.45 430.7 69.19 430.39 69.04 430.02 68.89 429.64 68.87 429.24 68.84 428.83 68.95 428.44 69.06 428.05 69.29 427.72 69.52 427.38 69.84 427.14 70.16 426.89 70.54 426.77 70.93 426.64 71.33 426.64 71.73 426.64 72.12 426.77 72.5 426.9 72.82 427.14 73.15 427.38 73.37 427.72 73.6 428.05 73.71 428.44 73.82 428.83 73.79 429.24 73.77 429.64 73.62 430.02 73.47 430.39 73.21 430.7 72.95 431.01 72.6 431.22 72.25 431.43 71.86 431.51 71.46 431.6 71.06 431.56 70.66 431.51 70.29 431.34 69.93 431.17 69.63 430.89 69.34 430.62 69.15 430.26 68.96 429.9 68.9 429.5 68.83 429.1 68.83 429.1 68.83 429.1 68.83 426.44 68.83 423.77 68.75 421.04 68.67 418.31 68.52 414.21 68.37 410.1 68.62 409.94 68.87 409.77 69.16 409.67 69.44 409.57 69.74 409.54 70.04 409.51 70.34 409.55 70.64 409.59 70.92 409.7 71.2 409.81 71.44 409.99 71.68 410.17 71.88 410.4 72.08 410.62 72.21 410.89 72.35 411.16 72.41 411.46 72.48 411.75 72.47 412.05 72.47 412.35 72.39 412.65 72.31 412.94 72.17 413.2 72.02 413.46 71.82 413.69 71.61 413.91 70.22 414.8 68.83 415.69 66.19 415.51 63.54 415.32 60.72 416.25 57.89 417.17 55.86 416.04 53.83 414.9 53.83 417.24 53.83 419.59 53.83 422.7 53.83 425.82 53.83 429.02 53.83 432.23 53.83 434.83 53.83 437.44 52.73 439.47 51.63 441.51 53.61 443.09 55.58 444.67 57.57 443.09 59.56 441.5 62.23 440.83 64.9 440.17 67.47 440.17 70.04 440.17 72.33 440.2 74.63 440.23 77.73 441.3 80.83 442.37 80.83 439.73 80.83 437.1 80.83 434.43 80.83 431.77 80.83 429.1 80.83 426.44 80.83 423.77 80.83 421.1 80.83 418.43 80.83 415.77 81.08 413.32 81.34 410.87 80.56 408.29 79.79 405.71 79.44 403.44 79.1 401.17 76.32 401.17 73.54 401.17 70.3 401.17 67.06 401.17 64.28 401.17 61.51 401.17 58.97 401.17 56.44 401.17 53.75 401.17 51.06 401.17 48.4 401.17 45.73 401.17 43.09 401.17 40.44 401.17 39.03 403 37.62 404.83 37.72 407.2 37.83 409.57 37.83 412.23 37.83 414.9 37.83 417.58 37.83 420.27 37.16 422.91 36.5 425.56 35.65 428.1 34.8 430.64 35.4 433.22 36 435.8 36.92 438.91 37.83 442.01 37.49 443.67 37.15 445.33 37.13 445.55 37.1 445.77 37.02 445.97 36.94 446.18 36.82 446.36 36.69 446.54 36.53 446.68 36.37 446.83 36.17 446.93 35.98 447.03 35.76 447.09 35.55 447.14 35.33 447.14 35.11 447.14 34.9 447.09 34.68 447.03 34.49 446.93 34.29 446.83 34.13 446.68 33.97 446.54 33.84 446.36 33.72 446.18 33.64 445.97 33.56 445.77 33.53 445.55 33.51 445.33 33.51 445.33 Z"></path></svg>
